<svg width="61" height="61" viewBox="0 0 61 61" fill="none" xmlns="http://www.w3.org/2000/svg">
<g id="Frame" clip-path="url(#clip0_1557_7852)">
<g id="Group">
<path id="Vector" d="M12.8096 12.3508C13.4872 13.7831 13.5409 15.1931 13.539 16.6253C13.5279 29.1076 13.5316 41.59 13.5335 54.0705C13.5335 55.5065 14.2592 56.6218 15.4718 57.0721C17.4545 57.8076 19.4576 56.3421 19.5354 54.0798C19.5687 53.1219 19.5372 52.1621 19.5446 51.2042C19.5557 49.7257 20.5702 48.5714 22.0383 48.3731C22.3734 48.3268 22.7159 48.312 23.0547 48.3101C31.504 48.3064 39.9532 48.3009 48.4025 48.3213C48.9931 48.3231 49.1801 48.2175 49.1764 47.5764C49.1468 42.1885 49.1579 36.7987 49.1616 31.4088C49.1616 30.4417 49.5855 29.7728 50.3482 29.493C51.5793 29.0391 52.8345 29.9247 52.8604 31.2847C52.8808 32.3278 52.8641 33.3728 52.8641 34.4159C52.8641 38.8256 52.8771 43.2335 52.8475 47.6431C52.8438 48.2305 53.0159 48.3342 53.551 48.3194C54.8691 48.2805 56.1891 48.2916 57.509 48.3101C59.4918 48.3379 60.6673 49.5349 60.6488 51.5248C60.6359 52.9255 60.8043 54.341 60.4748 55.7232C59.6973 58.9805 57.024 60.9945 53.5065 60.9945C41.3325 60.9963 29.1584 60.9945 16.9843 60.9963C15.3718 60.9963 13.8649 60.6517 12.5597 59.6567C10.8584 58.3579 9.85313 56.6478 9.84757 54.4911C9.8198 43.6911 9.82165 32.8929 9.84017 22.0929C9.84202 21.4333 9.68651 21.2536 9.0219 21.2703C7.04287 21.3184 5.06384 21.2906 3.08481 21.2869C1.44827 21.2832 0.228269 20.2883 0.106084 18.6726C-0.0198036 17.0218 -0.104963 15.3468 0.280105 13.7145C0.950272 10.8667 3.60317 8.71193 6.56709 8.66376C9.71613 8.61188 12.867 8.64523 16.0161 8.64338C20.5499 8.64153 25.0818 8.63967 29.6156 8.64523C30.632 8.64708 31.4299 9.31595 31.5428 10.2312C31.6576 11.1762 31.1152 11.997 30.2025 12.2841C29.9285 12.3712 29.6545 12.3453 29.3805 12.3453C24.1229 12.349 18.8671 12.3471 13.6094 12.3471C13.378 12.3508 13.1466 12.3508 12.8096 12.3508ZM22.5881 57.1758C22.8307 57.3055 23.0454 57.2518 23.2528 57.2518C33.3127 57.2555 43.3726 57.2555 53.4306 57.2537C53.6861 57.2537 53.9416 57.2481 54.1952 57.2296C55.4726 57.1388 56.5556 56.1864 56.8426 54.9358C57.0203 54.1558 56.9018 53.3665 56.9573 52.5827C56.987 52.1658 56.8574 52.0528 56.4353 52.0528C45.5256 52.0639 34.6141 52.0639 23.7045 52.0547C23.3583 52.0547 23.2231 52.1177 23.2342 52.4993C23.2842 54.0965 23.2509 55.6843 22.5881 57.1758ZM6.76332 17.5887C7.08174 17.5887 7.40017 17.6036 7.71859 17.585C8.40912 17.5443 9.10705 17.6925 9.79018 17.5072C9.79388 16.7253 9.86608 15.936 9.79018 15.1616C9.62356 13.4755 8.2388 12.2656 6.67446 12.3564C5.0046 12.4528 3.82903 13.7182 3.79385 15.4636C3.78275 16.0157 3.82162 16.5697 3.78089 17.1181C3.75127 17.5332 3.90678 17.6091 4.28259 17.598C5.10827 17.5702 5.9358 17.5887 6.76332 17.5887Z" fill="url(#paint0_linear_1557_7852)"/>
<path id="Vector_2" d="M47.9174 26.1746C40.677 26.182 34.8324 20.3364 34.8399 13.0938C34.8473 5.86782 40.7362 -0.0259661 47.9266 -0.00187956C55.1096 0.0222069 60.9541 5.86967 60.9986 13.0734C61.0412 20.253 55.1355 26.1672 47.9174 26.1746ZM47.8933 3.74265C42.6727 3.75932 38.5406 7.92814 38.5554 13.1623C38.5702 18.3298 42.7541 22.4708 47.9488 22.4597C53.1176 22.4486 57.2793 18.2501 57.2553 13.0734C57.2312 7.87997 53.0639 3.72597 47.8933 3.74265Z" fill="url(#paint1_linear_1557_7852)"/>
<path id="Vector_3" d="M28.6766 28.2071C26.5291 28.2071 24.3798 28.2108 22.2323 28.2052C21.0493 28.2015 20.2162 27.4456 20.2033 26.3821C20.1903 25.313 21.0623 24.5033 22.2619 24.5015C26.5162 24.4959 30.7704 24.4959 35.0247 24.5015C36.204 24.5033 37.0278 25.276 37.037 26.3469C37.0463 27.4493 36.2243 28.2015 34.9951 28.2034C32.8883 28.2108 30.7815 28.2071 28.6766 28.2071Z" fill="url(#paint2_linear_1557_7852)"/>
<path id="Vector_4" d="M26.6347 32.287C28.0787 32.287 29.5227 32.2815 30.9667 32.2889C32.0775 32.2944 32.918 33.0967 32.918 34.1306C32.918 35.1515 32.059 35.9834 30.9704 35.9871C28.0176 35.9945 25.0667 35.9945 22.1139 35.9871C21.0346 35.9834 20.1774 35.1237 20.1996 34.1046C20.2219 33.0837 21.0383 32.2981 22.1102 32.2926C23.619 32.2796 25.1259 32.287 26.6347 32.287Z" fill="url(#paint3_linear_1557_7852)"/>
<path id="Vector_5" d="M46.5419 12.9752C47.8433 11.9302 49.1152 10.9019 50.3944 9.88474C51.3645 9.11583 52.4716 9.17882 53.1584 10.0237C53.8526 10.8797 53.6564 12.0173 52.6771 12.8066C50.9905 14.1666 49.3059 15.5265 47.6193 16.8846C46.5252 17.7647 45.5311 17.6628 44.6443 16.5678C43.989 15.76 43.3484 14.9411 42.7153 14.1147C42.0118 13.1994 42.1192 12.0433 42.9485 11.3948C43.7705 10.7537 44.8535 10.9056 45.5977 11.782C45.9125 12.1563 46.205 12.5472 46.5419 12.9752Z" fill="url(#paint4_linear_1557_7852)"/>
</g>
</g>
<defs>
<linearGradient id="paint0_linear_1557_7852" x1="30.3403" y1="8.63452" x2="30.3403" y2="60.9963" gradientUnits="userSpaceOnUse">
<stop stop-color="#1B94A5"/>
<stop offset="0.614583" stop-color="#579AFF" stop-opacity="0.74"/>
<stop offset="0.916667" stop-color="#4D49C7" stop-opacity="0.52"/>
<stop offset="1" stop-color="#F1D881" stop-opacity="0.58"/>
</linearGradient>
<linearGradient id="paint1_linear_1557_7852" x1="47.9193" y1="-0.00195313" x2="47.9193" y2="26.1746" gradientUnits="userSpaceOnUse">
<stop stop-color="#1B94A5"/>
<stop offset="0.614583" stop-color="#579AFF" stop-opacity="0.74"/>
<stop offset="0.916667" stop-color="#4D49C7" stop-opacity="0.52"/>
<stop offset="1" stop-color="#F1D881" stop-opacity="0.58"/>
</linearGradient>
<linearGradient id="paint2_linear_1557_7852" x1="28.6201" y1="24.4973" x2="28.6201" y2="28.2083" gradientUnits="userSpaceOnUse">
<stop stop-color="#1B94A5"/>
<stop offset="0.614583" stop-color="#579AFF" stop-opacity="0.74"/>
<stop offset="0.916667" stop-color="#4D49C7" stop-opacity="0.52"/>
<stop offset="1" stop-color="#F1D881" stop-opacity="0.58"/>
</linearGradient>
<linearGradient id="paint3_linear_1557_7852" x1="26.5586" y1="32.2849" x2="26.5586" y2="35.9926" gradientUnits="userSpaceOnUse">
<stop stop-color="#1B94A5"/>
<stop offset="0.614583" stop-color="#579AFF" stop-opacity="0.74"/>
<stop offset="0.916667" stop-color="#4D49C7" stop-opacity="0.52"/>
<stop offset="1" stop-color="#F1D881" stop-opacity="0.58"/>
</linearGradient>
<linearGradient id="paint4_linear_1557_7852" x1="47.9105" y1="9.34668" x2="47.9105" y2="17.4752" gradientUnits="userSpaceOnUse">
<stop stop-color="#1B94A5"/>
<stop offset="0.614583" stop-color="#579AFF" stop-opacity="0.74"/>
<stop offset="0.916667" stop-color="#4D49C7" stop-opacity="0.52"/>
<stop offset="1" stop-color="#F1D881" stop-opacity="0.58"/>
</linearGradient>
<clipPath id="clip0_1557_7852">
<rect width="61" height="61" fill="white"/>
</clipPath>
</defs>
</svg>
