<svg width="23" height="23" viewBox="0 0 23 23" fill="none" xmlns="http://www.w3.org/2000/svg">
<path d="M11.386 2.04957C14.4282 2.04957 14.7884 2.0629 15.9849 2.11625C17.0968 2.16516 17.6972 2.35189 18.0975 2.50749C18.6268 2.71201 19.0093 2.96098 19.4051 3.35666C19.8054 3.7568 20.05 4.1347 20.2546 4.66376C20.4103 5.06389 20.5971 5.66854 20.646 6.77557C20.6994 7.97597 20.7127 8.33608 20.7127 11.3726C20.7127 14.4136 20.6994 14.7738 20.646 15.9697C20.5971 17.0812 20.4103 17.6814 20.2546 18.0815C20.05 18.6106 19.8009 18.9929 19.4051 19.3886C19.0048 19.7888 18.6268 20.0333 18.0975 20.2378C17.6972 20.3934 17.0923 20.5801 15.9849 20.629C14.784 20.6824 14.4237 20.6957 11.386 20.6957C8.34379 20.6957 7.98353 20.6824 6.78711 20.629C5.6752 20.5801 5.07477 20.3934 4.67448 20.2378C4.14521 20.0333 3.76271 19.7843 3.36687 19.3886C2.96658 18.9885 2.72196 18.6106 2.51737 18.0815C2.3617 17.6814 2.1749 17.0767 2.12598 15.9697C2.0726 14.7693 2.05926 14.4092 2.05926 11.3726C2.05926 8.33164 2.0726 7.97152 2.12598 6.77557C2.1749 5.66409 2.3617 5.06389 2.51737 4.66376C2.72196 4.1347 2.97103 3.75235 3.36687 3.35666C3.76716 2.95653 4.14521 2.71201 4.67448 2.50749C5.07477 2.35189 5.67965 2.16516 6.78711 2.11625C7.98353 2.0629 8.34379 2.04957 11.386 2.04957ZM11.386 0C8.29487 0 7.90792 0.0133377 6.69371 0.0666887C5.48395 0.12004 4.65224 0.31566 3.93172 0.595752C3.18007 0.889182 2.54406 1.27598 1.91249 1.91174C1.27648 2.54306 0.88953 3.17883 0.595985 3.92574C0.315783 4.65042 0.120087 5.47736 0.0667147 6.68665C0.0133429 7.90483 0 8.29163 0 11.3815C0 14.4714 0.0133429 14.8582 0.0667147 16.072C0.120087 17.2813 0.315783 18.1126 0.595985 18.8329C0.88953 19.5842 1.27648 20.22 1.91249 20.8513C2.54406 21.4826 3.18007 21.8739 3.92727 22.1629C4.65224 22.443 5.4795 22.6386 6.68926 22.6919C7.90347 22.7453 8.29042 22.7586 11.3815 22.7586C14.4727 22.7586 14.8596 22.7453 16.0738 22.6919C17.2836 22.6386 18.1153 22.443 18.8358 22.1629C19.583 21.8739 20.219 21.4826 20.8506 20.8513C21.4821 20.22 21.8735 19.5842 22.1626 18.8373C22.4428 18.1126 22.6385 17.2857 22.6919 16.0764C22.7453 14.8627 22.7586 14.4759 22.7586 11.386C22.7586 8.29607 22.7453 7.90928 22.6919 6.69554C22.6385 5.48626 22.4428 4.65487 22.1626 3.93463C21.8824 3.17883 21.4955 2.54306 20.8595 1.91174C20.2279 1.28042 19.5919 0.889182 18.8447 0.600198C18.1197 0.320106 17.2925 0.124486 16.0827 0.0711346C14.864 0.0133377 14.4771 0 11.386 0Z" fill="#343434"/>
<path d="M11.3858 5.53516C8.15677 5.53516 5.53711 8.1538 5.53711 11.3815C5.53711 14.6093 8.15677 17.2279 11.3858 17.2279C14.6148 17.2279 17.2344 14.6093 17.2344 11.3815C17.2344 8.1538 14.6148 5.53516 11.3858 5.53516ZM11.3858 15.1739C9.29093 15.1739 7.59192 13.4756 7.59192 11.3815C7.59192 9.28751 9.29093 7.58917 11.3858 7.58917C13.4806 7.58917 15.1796 9.28751 15.1796 11.3815C15.1796 13.4756 13.4806 15.1739 11.3858 15.1739Z" fill="#343434"/>
<path d="M18.8305 5.30394C18.8305 6.05974 18.2167 6.66883 17.465 6.66883C16.7089 6.66883 16.0996 6.0553 16.0996 5.30394C16.0996 4.54813 16.7134 3.93904 17.465 3.93904C18.2167 3.93904 18.8305 4.55258 18.8305 5.30394Z" fill="#343434"/>
</svg>
