<svg width="23" height="22" viewBox="0 0 23 22" fill="none" xmlns="http://www.w3.org/2000/svg">
<path d="M4.77621 2.40337C4.77589 3.04046 4.52398 3.65133 4.0759 4.1016C3.62782 4.55187 3.02027 4.80465 2.38691 4.80433C1.75355 4.80401 1.14625 4.55062 0.698615 4.0999C0.250983 3.64919 -0.000316383 3.03806 2.98944e-07 2.40096C0.000316981 1.76387 0.252224 1.153 0.700304 0.702729C1.14838 0.252461 1.75593 -0.000318246 2.3893 3.00705e-07C3.02266 0.000318848 3.62996 0.253709 4.07759 0.704427C4.52522 1.15515 4.77652 1.76627 4.77621 2.40337ZM4.84785 6.58313H0.0716433V21.6207H4.84785V6.58313ZM12.3943 6.58313H7.64193V21.6207H12.3465V13.7296C12.3465 9.33361 18.0421 8.92525 18.0421 13.7296V21.6207H22.7586V12.0961C22.7586 4.68542 14.3286 4.96167 12.3465 8.60095L12.3943 6.58313Z" fill="#343434"/>
</svg>
