<svg width="24" height="31" viewBox="0 0 24 31" fill="none" xmlns="http://www.w3.org/2000/svg">
<g id="Group 984">
<path id="Vector" d="M12 17.098C14.0711 17.098 15.75 15.2545 15.75 12.9804C15.75 10.7063 14.0711 8.86273 12 8.86273C9.92893 8.86273 8.25 10.7063 8.25 12.9804C8.25 15.2545 9.92893 17.098 12 17.098Z" stroke="#135E69" stroke-width="2.5" stroke-linecap="round" stroke-linejoin="round"/>
<path id="Vector_2" d="M12 2C9.34784 2 6.8043 3.15686 4.92893 5.21608C3.05357 7.27531 2 10.0682 2 12.9804C2 15.5773 2.5025 17.2765 3.875 19.1569L12 29.451L20.125 19.1569C21.4975 17.2765 22 15.5773 22 12.9804C22 10.0682 20.9464 7.27531 19.0711 5.21608C17.1957 3.15686 14.6522 2 12 2Z" stroke="#135E69" stroke-width="2.5" stroke-linecap="round" stroke-linejoin="round"/>
</g>
</svg>
