<svg width="32" height="26" viewBox="0 0 32 26" fill="none" xmlns="http://www.w3.org/2000/svg">
<path id="Vector" d="M30 0H2C1.46957 0 0.960859 0.224419 0.585786 0.623887C0.210714 1.02336 0 1.56515 0 2.13008V23.4309C0 23.9959 0.210714 24.5376 0.585786 24.9371C0.960859 25.3366 1.46957 25.561 2 25.561H30C30.5304 25.561 31.0391 25.3366 31.4142 24.9371C31.7893 24.5376 32 23.9959 32 23.4309V2.13008C32 1.56515 31.7893 1.02336 31.4142 0.623887C31.0391 0.224419 30.5304 0 30 0ZM28.46 23.4309H3.66L10.66 15.72L9.22 14.2396L2 22.1955V3.74895L14.43 16.9235C14.8047 17.3202 15.3116 17.5429 15.84 17.5429C16.3684 17.5429 16.8753 17.3202 17.25 16.9235L30 3.41878V22.057L22.64 14.2183L21.23 15.72L28.46 23.4309ZM3.31 2.13008H28.38L22.11 8.77062L15.84 15.4112L3.31 2.13008Z" fill="#135E69"/>
</svg>
