<svg width="29" height="29" viewBox="0 0 29 29" fill="none" xmlns="http://www.w3.org/2000/svg">
<g id="Frame 1153">
<path id="Vector" d="M19.1713 6.19263V27.9982M9.82606 1.00083V22.8064M18.2154 5.97458L10.782 1.21889C10.4863 1.07119 10.1596 0.996198 9.82915 1.00015C9.49865 1.0041 9.17387 1.08688 8.8818 1.2416L1.55228 6.15954C1.38553 6.24787 1.246 6.37998 1.1487 6.54166C1.05139 6.70334 0.999983 6.88848 1 7.07719V26.2739C0.999984 26.4529 1.04628 26.629 1.13439 26.7849C1.2225 26.9408 1.34943 27.0712 1.50285 27.1636C1.65627 27.2559 1.83096 27.307 2.00997 27.3119C2.18897 27.3168 2.3662 27.2753 2.52444 27.1915L8.87271 23.0517C9.16716 22.8957 9.49483 22.8128 9.82805 22.8101C10.1613 22.8074 10.4902 22.8849 10.7872 23.0361L18.0466 27.7736C18.341 27.9236 18.6669 28.0012 18.9973 28C19.3276 27.9987 19.6529 27.9187 19.9462 27.7665L27.4373 22.8382C27.6061 22.7506 27.7476 22.6183 27.8463 22.4558C27.9451 22.2933 27.9973 22.1068 27.9973 21.9166V2.72516C27.9974 2.54609 27.9511 2.37006 27.863 2.21416C27.7748 2.05827 27.6479 1.92781 27.4945 1.83545C27.3411 1.7431 27.1664 1.69199 26.9874 1.6871C26.8084 1.6822 26.6311 1.72368 26.4729 1.80751L20.113 5.95186C19.8212 6.10616 19.4969 6.1887 19.1669 6.19265C18.8369 6.1966 18.5107 6.12185 18.2154 5.97458Z" stroke="#135E69" stroke-width="2" stroke-linecap="round" stroke-linejoin="round"/>
</g>
</svg>
