<svg width="18" height="9" viewBox="0 0 18 9" fill="none" xmlns="http://www.w3.org/2000/svg">
<path fill-rule="evenodd" clip-rule="evenodd" d="M0 4.75C0 4.33579 0.223858 4 0.5 4L16.5 4C16.7761 4 17 4.33579 17 4.75C17 5.16421 16.7761 5.5 16.5 5.5L0.5 5.5C0.223858 5.5 0 5.16421 0 4.75Z" fill="#333333"/>
<path d="M17.7354 4.52828L17.7637 4.5L17.7354 4.47172L13.8818 0.618162C13.671 0.407279 13.329 0.407279 13.1182 0.618162C12.9073 0.829046 12.9073 1.17095 13.1182 1.38184L16.2363 4.5L13.1182 7.61816C12.9073 7.82905 12.9073 8.17096 13.1182 8.38184C13.329 8.59272 13.671 8.59272 13.8818 8.38184L17.7354 4.52828Z" fill="#333333" stroke="#333333" stroke-width="0.08" stroke-linecap="round"/>
</svg>
