<svg width="14" height="14" viewBox="0 0 14 14" fill="none" xmlns="http://www.w3.org/2000/svg">
<g clip-path="url(#clip0_723_1945)">
<path d="M0.0599353 5.02797C0.0975775 4.82916 0.1312 4.62926 0.176882 4.43228C0.186019 4.39244 0.184922 4.3548 0.19077 4.31643C0.19077 4.31021 0.19077 4.304 0.19077 4.29742C0.290905 4.04562 0.385194 3.79163 0.492273 3.54275C0.701681 3.05669 0.977968 2.61119 1.3109 2.19969C1.47865 1.99211 1.65005 1.78782 1.84776 1.60874C2.23295 1.259 2.64592 0.946529 3.1075 0.702037C3.69442 0.391031 4.31242 0.173949 4.96951 0.0708894C4.98157 0.0690621 4.9929 0.061753 5.00459 0.0566365C5.02177 0.0800259 5.03968 0.0800259 5.05759 0.0573675C5.11167 0.0409218 5.17198 0.061753 5.22314 0.0292271C5.24032 0.0526165 5.25822 0.0526165 5.27613 0.029958C6.94116 -0.123535 8.4326 0.304052 9.7351 1.36315C9.74314 1.36315 9.75118 1.36315 9.75922 1.36388L9.76104 1.36534C9.76799 1.37338 9.77493 1.38179 9.78187 1.38983C9.99603 1.59997 10.2252 1.79768 10.4207 2.02427C10.6316 2.26876 10.8245 2.53116 10.9904 2.81C11.3585 3.42873 11.638 4.08107 11.7608 4.79664C11.8131 5.10107 11.8599 5.4044 11.8665 5.71357C11.8672 5.71979 11.869 5.726 11.8719 5.73185C11.8935 5.85428 11.8972 5.97671 11.8734 6.09913C11.8694 6.10535 11.8672 6.11193 11.8668 6.11923C11.8734 6.31256 11.8383 6.50187 11.8186 6.69301C11.7886 6.98647 11.7228 7.2697 11.6505 7.55366C11.5328 8.01597 11.3336 8.44392 11.11 8.86091C10.9031 9.2461 10.6367 9.59182 10.3472 9.91635C10.1543 10.1323 9.93939 10.3279 9.7128 10.5124C9.40911 10.7598 9.09152 10.9813 8.74836 11.1666C8.3321 11.391 7.89574 11.5704 7.43599 11.6841C7.01645 11.7879 6.59325 11.8734 6.15579 11.8675C6.02715 11.8657 5.89705 11.9019 5.76658 11.8898C5.58458 11.873 5.40039 11.8767 5.22168 11.8292C5.2034 11.8061 5.18586 11.8072 5.16869 11.8299C4.69505 11.7809 4.23932 11.657 3.79639 11.4871C3.51206 11.3778 3.23395 11.2528 2.97228 11.0953C2.93902 11.0752 2.90576 11.0723 2.87105 11.0654C2.86629 11.0368 2.88676 10.9835 2.82134 11.0153C2.54506 10.8059 2.24648 10.6253 1.99541 10.3823C1.98481 10.3746 1.97421 10.3666 1.96325 10.3589C1.72752 10.1466 1.51008 9.91708 1.31236 9.66894C1.31127 9.64774 1.30505 9.62983 1.28349 9.62143C1.17897 9.51362 1.09674 9.38863 1.01122 9.2662C1.01122 9.24318 1.00647 9.22235 0.98345 9.21102C0.843479 9.0239 0.736765 8.81742 0.627858 8.61203C0.620549 8.60216 0.61324 8.59193 0.606296 8.58206C0.558787 8.47352 0.511277 8.36498 0.464133 8.25644C0.457189 8.24657 0.450611 8.2367 0.443667 8.22684C0.432338 8.19029 0.421374 8.15374 0.410045 8.1172C0.403101 8.10806 0.396157 8.09929 0.389214 8.09015C0.387021 8.07261 0.384463 8.05507 0.38227 8.03716C0.374961 8.0273 0.367652 8.01743 0.360343 8.00793C0.340973 7.87526 0.247416 7.76453 0.245588 7.62675C0.245223 7.59569 0.252167 7.56243 0.216717 7.54379C0.154589 7.36545 0.107079 7.18382 0.0880756 6.99524C0.112196 6.97733 0.11183 6.95979 0.0880756 6.94188C0.0394696 6.837 0.0431242 6.7237 0.0332568 6.6126C0.0573771 6.59506 0.0570116 6.57715 0.0336222 6.55925C0.0237548 6.53988 0.0361804 6.50735 0 6.50406V6.28515C0.0438551 6.20329 0.0438551 6.12106 0 6.0392V5.82029C0.0281403 5.80202 0.0281403 5.78374 0 5.76547V5.32802C0.0343531 5.3229 0.0690717 5.31778 0.0281403 5.27356C0.0201002 5.20595 0.0314295 5.14163 0.0613971 5.08097C0.0847865 5.06306 0.0836901 5.04515 0.0606662 5.02761L0.0599353 5.02797ZM6.20586 1.65625C6.16273 1.62555 6.11778 1.6303 6.07247 1.6504C5.97964 1.6504 5.88718 1.65113 5.79435 1.6515C5.75781 1.6303 5.72199 1.62738 5.688 1.65625C5.54109 1.66612 5.39673 1.69645 5.25128 1.71545C4.8712 1.76516 4.50647 1.87004 4.16221 2.03121C3.59502 2.29727 3.09544 2.65615 2.68795 3.14221C2.33894 3.55846 2.06448 4.01309 1.8854 4.52583C1.73885 4.94538 1.65918 5.37662 1.65736 5.82175C1.63762 5.83856 1.63726 5.85574 1.65589 5.87365C1.65589 5.90215 1.65516 5.93066 1.6548 5.95916C1.63433 5.98584 1.63397 6.01216 1.65699 6.03774C1.68221 6.19379 1.66759 6.35167 1.68915 6.50991C1.74287 6.90753 1.84739 7.28797 2.01002 7.65233C2.28631 8.27069 2.68101 8.79951 3.20544 9.23294C3.69771 9.6397 4.24736 9.92914 4.86572 10.0852C5.06782 10.1364 5.27832 10.1513 5.48188 10.1861C5.83053 10.246 6.16639 10.2186 6.50773 10.174C6.52527 10.1974 6.54318 10.1978 6.56145 10.1747C7.17834 10.0677 7.76016 9.86884 8.28057 9.51179C8.30469 9.51142 8.32735 9.50813 8.33868 9.48292C8.46476 9.38351 8.59084 9.28374 8.71693 9.18434C8.72752 9.17666 8.73849 9.16862 8.74909 9.16095C8.89564 9.03085 9.03378 8.89234 9.16425 8.74615C9.17156 8.73629 9.17887 8.72642 9.18581 8.71655L9.35612 8.5002C9.36342 8.4907 9.37037 8.48156 9.37768 8.47206C9.38791 8.44684 9.40399 8.42711 9.43067 8.41797C9.45479 8.40701 9.45954 8.38581 9.45954 8.36242C9.4705 8.34451 9.48147 8.32661 9.49243 8.30906C9.49974 8.2992 9.50705 8.28933 9.51399 8.27983C9.64556 8.08138 9.76287 7.87563 9.84839 7.6527C9.85533 7.64283 9.86228 7.63333 9.86922 7.62346C9.9953 7.34279 10.053 7.04056 10.1488 6.75038C10.1773 6.72407 10.1773 6.69703 10.1503 6.66962C10.1638 6.58373 10.1817 6.49785 10.1905 6.4116C10.2084 6.23289 10.2219 6.04943 10.2135 5.87401C10.2051 5.69347 10.2193 5.50782 10.1762 5.32875C10.2003 5.31084 10.2003 5.29293 10.1762 5.27502C10.132 5.13286 10.0969 4.98924 10.0874 4.84013L10.068 4.78312C10.0231 4.7272 10.0322 4.65374 10.0059 4.59198C9.99932 4.58285 9.99274 4.57371 9.9858 4.56421L9.97813 4.51012L9.95766 4.48198C9.94633 4.44616 9.93464 4.41035 9.92331 4.37453C9.91673 4.36467 9.91015 4.35516 9.90357 4.3453C9.89188 4.30985 9.88018 4.27403 9.86849 4.23858C9.86154 4.22872 9.85424 4.21848 9.84729 4.20862C9.72194 3.902 9.55163 3.62132 9.35063 3.35892C9.3499 3.33663 9.34478 3.31653 9.32176 3.30593C9.14049 3.12174 8.98188 2.91745 8.78381 2.74788C8.5342 2.53408 8.26961 2.34551 7.98418 2.18434C7.43124 1.8726 6.83079 1.72094 6.20476 1.65698L6.20586 1.65625Z" fill="white"/>
<path d="M12.9618 13.9693C12.4962 13.7712 12.1998 13.3707 11.8512 13.0341C11.3183 12.5195 10.7943 11.9954 10.2632 11.4783C10.1777 11.395 10.1638 11.3625 10.2746 11.2696C10.6452 10.9594 10.9985 10.6283 11.2938 10.2416C11.3432 10.1769 11.3768 10.1528 11.4488 10.2244C12.1231 10.8951 12.8017 11.5617 13.4782 12.2301C13.5834 12.3339 13.7 12.4238 13.7954 12.5411C14.0092 12.8049 14.0534 13.0991 13.9379 13.401C13.8166 13.7179 13.5652 13.9006 13.2205 13.9426C13.1884 13.9466 13.146 13.9203 13.1259 13.9689H12.9618V13.9693Z" fill="white"/>
<path d="M0 6.03922C0.0438551 6.12108 0.0438551 6.20331 0 6.28517V6.03922Z" fill="white"/>
<path d="M0.0281403 5.27392C0.0687063 5.31815 0.0339877 5.32326 0 5.32838V5.27356C0.00950193 5.27356 0.0190039 5.27356 0.0281403 5.27356V5.27392Z" fill="white"/>
<path d="M0 5.76584C0.0281403 5.78411 0.0281403 5.80238 0 5.82066V5.76584Z" fill="white"/>
<path d="M2.82227 11.0157C2.88768 10.9839 2.86758 11.0372 2.87197 11.0657C2.84127 11.0628 2.82446 11.0467 2.82227 11.0157Z" fill="white"/>
<path d="M0.216797 7.54379C0.252246 7.56243 0.245303 7.59605 0.245668 7.62675C0.203275 7.61031 0.229588 7.57011 0.216797 7.54379Z" fill="white"/>
<path d="M5.2776 0.030333C5.25969 0.052626 5.24179 0.0529914 5.22461 0.0296021C5.24215 0.0296021 5.26006 0.030333 5.2776 0.030333Z" fill="white"/>
<path d="M5.05885 0.0577378C5.04094 0.0800308 5.02304 0.0803962 5.00586 0.0570068C5.0234 0.0570068 5.04131 0.0577378 5.05885 0.0577378Z" fill="white"/>
<path d="M0.984375 9.21176C1.0074 9.22309 1.01215 9.24392 1.01215 9.26695C0.983279 9.25854 0.991684 9.23113 0.984375 9.21176Z" fill="white"/>
<path d="M0.0605469 5.02798C0.0835708 5.04553 0.0846672 5.06307 0.0612778 5.08134C0.0612778 5.06343 0.0609123 5.04589 0.0605469 5.02798Z" fill="white"/>
<path d="M5.16797 11.8303C5.18515 11.8072 5.20305 11.8065 5.22096 11.8295C5.20342 11.8295 5.18551 11.8303 5.16797 11.8303Z" fill="white"/>
<path d="M0.0335686 6.55927C0.056958 6.57717 0.056958 6.59508 0.0332031 6.61262C0.0332031 6.59471 0.0332031 6.57717 0.0335686 6.55927Z" fill="white"/>
<path d="M0.0878906 6.94226C0.11128 6.96017 0.112011 6.97808 0.0878906 6.99562C0.0878906 6.97771 0.0878906 6.96017 0.0878906 6.94226Z" fill="white"/>
<path d="M1.2832 9.6218C1.30513 9.6302 1.31134 9.64811 1.31207 9.6693C1.27699 9.6693 1.2938 9.63714 1.2832 9.6218Z" fill="white"/>
<path d="M9.76045 1.36427C9.75241 1.36354 9.74437 1.36354 9.73633 1.36354C9.74071 1.35623 9.7451 1.34856 9.74949 1.34125L9.76045 1.36427Z" fill="white"/>
<path d="M9.78255 1.38984C9.77561 1.3818 9.76866 1.3734 9.76172 1.36536C9.77816 1.36536 9.78876 1.37047 9.78255 1.38984Z" fill="white"/>
<path d="M0.443182 8.2272C0.450126 8.23707 0.456704 8.24694 0.463648 8.25681C0.449395 8.25205 0.436604 8.24621 0.443182 8.2272Z" fill="white"/>
<path d="M11.8727 5.73187C11.8697 5.72602 11.8679 5.72017 11.8672 5.71359C11.8712 5.71761 11.8756 5.722 11.8796 5.72602C11.8771 5.72785 11.8749 5.72967 11.8723 5.73187H11.8727Z" fill="white"/>
<path d="M0.607075 8.58243C0.614384 8.5923 0.621693 8.60253 0.628637 8.6124C0.613653 8.60801 0.600862 8.6018 0.607075 8.58243Z" fill="white"/>
<path d="M0.360876 8.0083C0.368185 8.01817 0.375494 8.02804 0.382804 8.03754C0.367089 8.03388 0.355029 8.02767 0.360876 8.0083Z" fill="white"/>
<path d="M11.8672 6.11925C11.8676 6.11194 11.8697 6.10536 11.8738 6.09915C11.8745 6.10427 11.8763 6.10938 11.8756 6.1145C11.8756 6.11633 11.8701 6.11779 11.8672 6.11925Z" fill="white"/>
<path d="M0.388419 8.09052C0.395362 8.09965 0.402306 8.10842 0.40925 8.11756C0.393901 8.115 0.382206 8.10988 0.388419 8.09052Z" fill="white"/>
<path d="M1.96289 10.3593C1.97349 10.367 1.98409 10.375 1.99505 10.3827C1.97495 10.3878 1.96874 10.3739 1.96289 10.3593Z" fill="white"/>
<path d="M0.190879 4.29742C0.190879 4.30364 0.190879 4.30985 0.190879 4.31643C0.184666 4.31058 0.178453 4.3051 0.171875 4.29925C0.178088 4.29889 0.184666 4.29816 0.190879 4.29779V4.29742Z" fill="white"/>
<path d="M6.20566 1.65625C6.16107 1.65443 6.11685 1.65223 6.07227 1.65041C6.11758 1.63031 6.16253 1.62555 6.20566 1.65625Z" fill="white"/>
<path d="M5.7958 1.65151C5.76035 1.65297 5.7249 1.6548 5.68945 1.65626C5.72381 1.62739 5.75926 1.63031 5.7958 1.65151Z" fill="white"/>
<path d="M10.1504 6.74965C10.1508 6.72261 10.1515 6.69556 10.1519 6.66852C10.1789 6.69593 10.1789 6.72297 10.1504 6.74965Z" fill="white"/>
<path d="M1.65584 5.95917C1.65658 5.98548 1.65731 6.01179 1.65804 6.03774C1.63501 6.01216 1.63538 5.98585 1.65584 5.95917Z" fill="white"/>
<path d="M8.28125 9.51218C8.28892 9.47856 8.31889 9.49025 8.33936 9.48331C8.32766 9.50852 8.305 9.51181 8.28125 9.51218Z" fill="white"/>
<path d="M9.35309 3.35783C9.32276 3.35125 9.33372 3.32275 9.32422 3.30484C9.34688 3.31544 9.35236 3.33517 9.35309 3.35783Z" fill="white"/>
<path d="M6.50977 10.1744C6.52767 10.1744 6.54558 10.1747 6.56349 10.1751C6.54522 10.1981 6.52731 10.1981 6.50977 10.1744Z" fill="white"/>
<path d="M10.0887 4.83905C10.0612 4.82736 10.0653 4.8047 10.0693 4.78204C10.0759 4.80105 10.0821 4.82005 10.0887 4.83905Z" fill="white"/>
<path d="M10.1777 5.32765C10.1777 5.30974 10.1777 5.29183 10.1777 5.27393C10.2019 5.29183 10.2015 5.30974 10.1777 5.32765Z" fill="white"/>
<path d="M1.65771 5.82175C1.65734 5.83892 1.65661 5.85647 1.65625 5.87364C1.63761 5.85573 1.63797 5.83856 1.65771 5.82175Z" fill="white"/>
<path d="M9.43164 8.41761C9.43895 8.39788 9.42981 8.36974 9.46051 8.36206C9.46051 8.38545 9.45576 8.40665 9.43164 8.41761Z" fill="white"/>
<path d="M9.87046 4.23749C9.85584 4.23274 9.84305 4.22689 9.84926 4.20752C9.85621 4.21739 9.86352 4.22762 9.87046 4.23749Z" fill="white"/>
<path d="M9.49353 8.30872C9.48805 8.28935 9.50011 8.28313 9.5151 8.27948C9.50779 8.28935 9.50048 8.29921 9.49353 8.30872Z" fill="white"/>
<path d="M10.0083 4.59089C9.99365 4.58723 9.98159 4.58211 9.98817 4.56311C9.99475 4.57225 10.0013 4.58138 10.0083 4.59089Z" fill="white"/>
<path d="M9.16538 8.74616C9.1599 8.72715 9.17233 8.72094 9.18695 8.71655C9.17964 8.72642 9.17233 8.73629 9.16538 8.74616Z" fill="white"/>
<path d="M8.71875 9.18435C8.7246 9.16973 8.73081 9.15548 8.75091 9.16096C8.74031 9.16863 8.72935 9.17667 8.71875 9.18435Z" fill="white"/>
<path d="M9.84946 7.65234C9.84288 7.63298 9.85531 7.62713 9.87029 7.62311C9.86335 7.63298 9.8564 7.64248 9.84946 7.65234Z" fill="white"/>
<path d="M9.98129 4.50904C9.96631 4.50538 9.95425 4.4999 9.96082 4.4809C9.96777 4.4904 9.97471 4.49953 9.98129 4.50904Z" fill="white"/>
<path d="M9.92598 4.37344C9.91209 4.36869 9.8993 4.36321 9.90625 4.34421C9.91282 4.35408 9.9194 4.36358 9.92598 4.37344Z" fill="white"/>
<path d="M9.35671 8.49985C9.3516 8.48085 9.36293 8.475 9.37828 8.47171C9.37097 8.48121 9.36402 8.49035 9.35671 8.49985Z" fill="white"/>
</g>
<defs>
<clipPath id="clip0_723_1945">
<rect width="14" height="13.9693" fill="white"/>
</clipPath>
</defs>
</svg>
