<svg width="187" height="52" viewBox="0 0 187 52" fill="none" xmlns="http://www.w3.org/2000/svg">
<g clip-path="url(#clip0_655_5634)">
<path d="M20.1041 41.3663C20.9862 41.3663 21.8683 41.3594 22.7504 41.3677C23.9739 41.3789 24.8281 40.827 25.3256 39.7136C25.4859 39.3541 25.6531 38.9987 25.8022 38.635C28.7216 31.5309 31.6369 24.424 34.5591 17.3198C36.3901 12.8689 38.1934 8.40689 40.0802 3.9797C40.933 1.98 39.6064 -0.168799 37.3949 0.0165387C36.5183 0.090395 35.6307 0.0276868 34.7486 0.0290803C33.1377 0.0304738 32.4381 0.493121 31.825 1.98279C29.9925 6.43228 28.1628 10.8832 26.3304 15.3341C25.1765 18.1364 24.0283 20.9416 22.8633 23.7397C22.2474 25.2183 20.8956 25.83 19.5481 25.274C18.7036 24.9256 18.3051 24.2163 17.9846 23.4206C15.0958 16.2775 12.1987 9.13849 9.303 1.99812C8.70239 0.515417 7.98473 0.0304738 6.39194 0.0290803C5.27713 0.0290803 4.15674 0.108511 3.05029 0.0123581C0.714761 -0.189702 -0.631374 1.96607 0.295313 4.08142C1.51185 6.85591 2.6183 9.68057 3.77213 12.4829C7.47888 21.4906 11.1842 30.4997 14.8924 39.506C15.4526 40.8674 16.1981 41.3621 17.6669 41.3663C18.4793 41.3677 19.2917 41.3663 20.1041 41.3663ZM36.5225 51.9459C37.1496 51.9459 37.7823 51.8915 38.4024 51.9556C40.1944 52.141 41.3371 51.3732 41.9099 49.694C41.9614 49.5407 42.0269 49.3916 42.0882 49.2425C45.6138 40.6626 49.1408 32.0827 52.6664 23.5042C53.4663 21.5575 54.2773 19.6149 55.0646 17.6626C55.8645 15.6783 54.7079 13.9517 52.5912 13.9447C51.6631 13.9419 50.7336 13.9433 49.8055 13.9447C48.327 13.9461 47.6456 14.3948 47.0868 15.7507C45.3226 20.0274 43.564 24.3069 41.8012 28.5836C40.9288 30.7004 40.0551 32.8185 39.1786 34.9339C38.7675 35.926 38.0401 36.5043 36.9462 36.5155C35.8202 36.5266 35.0788 35.9386 34.6496 34.9227C34.5688 34.7304 34.4894 34.5395 34.41 34.3458C33.67 32.5245 32.9286 30.7031 32.1915 28.8804C32.0939 28.6393 32.0075 28.369 31.7079 28.3523C31.3637 28.3328 31.2536 28.6129 31.1617 28.886C31.1394 28.9515 31.1031 29.0114 31.0767 29.0755C29.7682 32.2388 28.4638 35.4049 27.1497 38.5654C27.0076 38.9068 26.9811 39.2133 27.1261 39.5659C28.6115 43.157 30.0803 46.755 31.5644 50.3461C32.0117 51.4289 32.8506 51.9459 34.0156 51.9459C34.8503 51.9459 35.6864 51.9445 36.5225 51.9459ZM83.8825 34.6119C83.8825 32.9648 83.8686 31.3163 83.8923 29.6692C83.8993 29.2455 83.7947 29.0964 83.3544 29.1271C82.7775 29.1675 82.1908 29.1745 81.6153 29.1257C81.0844 29.0811 80.9589 29.2622 80.9645 29.7806C80.991 32.5426 80.9589 35.3045 80.9924 38.0651C80.9994 38.635 80.7987 38.9263 80.3291 39.2078C78.6638 40.2069 76.862 40.7434 74.9417 40.8981C71.2211 41.1977 67.8223 40.37 65.0325 37.7822C62.1284 35.0899 61.0177 31.6911 61.4233 27.7823C61.7911 24.2303 63.4438 21.4209 66.3981 19.4087C70.7013 16.4795 77.8026 16.4614 81.8912 20.4106C82.1142 20.6266 82.2465 20.6252 82.4402 20.3995C82.9335 19.8226 83.9369 19.3265 83.8867 18.7398C83.8296 18.0876 82.8862 17.5943 82.2201 17.1749C77.163 13.9851 71.8356 13.7845 66.4915 16.1757C61.5528 18.3859 58.8857 22.4424 58.4328 27.8018C57.9966 32.9676 59.6939 37.3544 63.8856 40.579C67.2356 43.157 71.1082 43.9276 75.2427 43.5472C78.1329 43.281 80.8001 42.3669 83.1607 40.625C83.6651 40.2529 83.9257 39.8725 83.9007 39.2036C83.8435 37.6763 83.8825 36.1434 83.8825 34.6119ZM141.057 24.6636C141.057 21.2649 141.046 18.3873 141.068 15.5096C141.072 15.0303 140.958 14.8547 140.459 14.8909C139.859 14.9341 139.25 14.9369 138.65 14.8895C138.14 14.8491 138.05 15.0414 138.051 15.5124C138.069 20.897 138.064 26.2815 138.065 31.6661C138.065 33.1125 138.249 34.5381 138.646 35.9246C139.622 39.3318 141.676 41.7816 145.102 42.9159C148.142 43.922 151.227 43.922 154.276 42.9912C157.113 42.1244 159.141 40.2836 160.332 37.5509C161.14 35.6947 161.473 33.7368 161.486 31.7274C161.51 27.9217 161.494 24.1146 161.496 20.3089C161.496 18.6841 161.482 17.0592 161.505 15.4344C161.512 15.0136 161.415 14.8547 160.972 14.8895C160.465 14.9299 159.945 14.9494 159.442 14.8867C158.716 14.7976 158.54 15.0554 158.546 15.7758C158.579 20.9973 158.568 26.2202 158.558 31.4417C158.555 33.0749 158.328 34.6761 157.722 36.2061C156.804 38.5249 155.137 40.0118 152.711 40.6041C150.331 41.1852 147.948 41.1726 145.682 40.1846C142.474 38.7869 141.424 35.9762 141.155 32.7697C140.915 29.9019 141.113 27.0201 141.057 24.6636ZM83.7014 50.6207C83.6484 50.6346 83.5941 50.6471 83.5411 50.6611C83.3976 50.4952 83.2471 50.335 83.1105 50.165C82.2702 49.1143 81.4327 48.0608 80.5966 47.0073C80.4656 46.8414 80.3444 46.6477 80.095 46.7132C79.7995 46.7913 79.911 47.0519 79.9096 47.2386C79.9013 48.6307 79.9027 50.0228 79.9068 51.415C79.9082 51.6059 79.8232 51.8637 80.1591 51.879C80.5506 51.8957 80.4433 51.6031 80.4559 51.3913C80.4656 51.2296 80.4573 51.0666 80.4573 50.9035C80.4573 49.9211 80.4573 48.9373 80.4573 47.7542C80.7402 48.0831 80.8893 48.2475 81.0272 48.4203C81.8508 49.4557 82.6688 50.4925 83.4924 51.5278C83.6331 51.7062 83.7543 51.9417 84.04 51.8734C84.3884 51.7912 84.2365 51.4958 84.2393 51.2951C84.2532 50.0423 84.2685 48.7882 84.2295 47.5368C84.2212 47.2637 84.5194 46.7049 83.9327 46.7369C83.4715 46.762 83.7223 47.2651 83.7125 47.541C83.6805 48.5652 83.7014 49.5936 83.7014 50.6207ZM173.371 50.6569C173.323 50.6708 173.274 50.6834 173.226 50.6973C172.245 49.4668 171.264 48.2364 170.286 47.0059C170.155 46.84 170.032 46.6547 169.782 46.7146C169.471 46.7871 169.593 47.0505 169.592 47.233C169.581 48.6028 169.582 49.9713 169.591 51.3411C169.592 51.5641 169.462 51.9055 169.901 51.8804C170.299 51.8581 170.137 51.539 170.14 51.3495C170.155 50.2012 170.147 49.0516 170.147 47.8782C170.439 47.9535 170.513 48.1681 170.636 48.3214C171.507 49.4069 172.369 50.4994 173.232 51.5933C173.364 51.7619 173.493 51.9389 173.741 51.879C174.055 51.8038 173.916 51.5376 173.919 51.3592C173.931 49.9894 173.931 48.621 173.919 47.2511C173.918 47.0574 174.069 46.7314 173.683 46.7132C173.25 46.6923 173.384 47.0449 173.381 47.2665C173.366 48.3952 173.371 49.5254 173.371 50.6569ZM143.825 50.8506C143.565 50.5412 143.42 50.3768 143.284 50.2054C142.432 49.1366 141.582 48.0677 140.734 46.9975C140.601 46.8317 140.473 46.6505 140.225 46.7146C139.92 46.7941 140.05 47.0574 140.047 47.2372C140.034 48.4886 140.019 49.74 140.057 50.9899C140.065 51.2854 139.767 51.8623 140.351 51.847C140.858 51.8344 140.572 51.2895 140.583 51.0039C140.625 49.9643 140.6 48.9206 140.6 47.6998C141.711 49.0975 142.69 50.3294 143.666 51.5641C143.813 51.7508 143.958 51.9612 144.229 51.8623C144.499 51.7633 144.365 51.5014 144.367 51.3174C144.379 49.9741 144.382 48.6307 144.364 47.2874C144.361 47.0811 144.542 46.7105 144.103 46.7146C143.681 46.7188 143.833 47.077 143.83 47.2943C143.818 48.4175 143.825 49.5421 143.825 50.8506ZM113.845 47.8726C114.109 47.927 114.171 48.1179 114.278 48.2531C115.132 49.3205 115.981 50.3921 116.832 51.4609C117.001 51.6728 117.146 52.0016 117.479 51.8539C117.77 51.7257 117.604 51.3982 117.607 51.1683C117.624 49.8709 117.624 48.5722 117.607 47.2748C117.604 47.07 117.784 46.6951 117.335 46.7146C116.917 46.7327 117.076 47.0881 117.073 47.3055C117.058 48.4287 117.066 49.5504 117.066 50.845C116.807 50.5398 116.659 50.3754 116.523 50.204C115.671 49.1352 114.821 48.0649 113.973 46.9933C113.84 46.8261 113.705 46.6477 113.461 46.716C113.162 46.7996 113.295 47.063 113.294 47.2428C113.282 48.6335 113.287 50.0242 113.288 51.415C113.288 51.6393 113.227 51.9055 113.606 51.8804C113.959 51.8567 113.84 51.5905 113.842 51.4122C113.85 50.2402 113.845 49.0683 113.845 47.8726ZM85.924 49.2745C85.924 49.9936 85.9254 50.714 85.9226 51.4331C85.9212 51.6714 85.8906 51.8957 86.2585 51.8901C87.2562 51.8748 88.2554 51.886 89.2531 51.8832C89.4148 51.8832 89.5834 51.8957 89.589 51.6477C89.5946 51.3955 89.4245 51.415 89.2643 51.4136C88.8003 51.4108 88.3362 51.4122 87.8708 51.4122C86.4299 51.4122 86.4438 51.4122 86.4731 49.9978C86.4814 49.6118 86.5762 49.4571 86.9831 49.4835C87.4917 49.517 88.0059 49.51 88.5146 49.4822C88.732 49.4696 89.1138 49.6549 89.1347 49.2787C89.1584 48.8579 88.7598 49.0752 88.5494 49.0446C88.3 49.007 88.0394 49.0362 87.7844 49.0362C86.4118 49.0362 86.4299 49.0362 86.4717 47.665C86.4828 47.2832 86.6152 47.1982 86.9622 47.2079C87.6576 47.2288 88.3557 47.2163 89.0511 47.2121C89.2253 47.2107 89.4427 47.2651 89.4594 46.9766C89.4775 46.6895 89.2782 46.7035 89.0887 46.7035C88.1606 46.7035 87.2312 46.7146 86.3031 46.6979C85.9784 46.6923 85.9171 46.8414 85.9199 47.1174C85.931 47.835 85.924 48.5541 85.924 49.2745ZM163.132 50.3433C163.132 50.112 163.125 49.8793 163.133 49.648C163.141 49.4208 163.062 49.3038 162.817 49.3094C162.563 49.3135 162.592 49.4877 162.591 49.6466C162.588 49.995 162.583 50.3433 162.592 50.6903C162.598 50.9147 162.551 51.0749 162.329 51.199C161.681 51.5627 160.519 51.4944 159.883 51.0025C159.153 50.4353 158.898 49.687 159.107 48.7854C159.308 47.9242 159.936 47.364 160.842 47.2163C161.439 47.1188 161.997 47.2024 162.505 47.5368C162.683 47.6553 162.859 47.8197 163.019 47.5452C163.183 47.2623 162.885 47.2093 162.746 47.0979C162.622 46.9989 162.47 46.9278 162.321 46.8693C161.217 46.4276 159.87 46.7244 159.123 47.5675C158.402 48.3813 158.277 49.6591 158.822 50.6193C159.39 51.6212 160.557 52.1061 161.816 51.8651C162.953 51.6491 163.132 51.4414 163.132 50.3433ZM150.229 50.321C150.229 50.0897 150.226 49.857 150.231 49.6257C150.233 49.4473 150.208 49.3094 149.976 49.3107C149.751 49.3121 149.704 49.439 149.705 49.6229C149.707 49.9016 149.669 50.1859 149.711 50.4576C149.8 51.0303 149.489 51.2408 149.006 51.3634C148 51.6184 146.938 51.2282 146.454 50.4047C145.968 49.5769 146.089 48.5053 146.744 47.8308C147.427 47.1257 148.603 46.971 149.507 47.456C149.702 47.5605 149.928 47.9075 150.134 47.5368C150.321 47.201 149.921 47.1299 149.746 47.024C148.73 46.415 147.235 46.6101 146.386 47.4295C145.575 48.2141 145.371 49.4682 145.888 50.5092C146.408 51.5571 147.625 52.1131 148.886 51.879C150.079 51.6546 150.229 51.4791 150.229 50.321ZM164.666 49.2885C164.666 50.0075 164.67 50.7252 164.663 51.4442C164.66 51.6965 164.666 51.8929 165.014 51.8874C166.011 51.872 167.008 51.8804 168.005 51.8832C168.185 51.8832 168.323 51.8595 168.317 51.6254C168.311 51.3634 168.125 51.415 167.974 51.4136C167.51 51.4094 167.048 51.4122 166.583 51.4122C165.115 51.4122 165.127 51.4136 165.214 49.9072C165.233 49.5672 165.346 49.4738 165.667 49.4835C166.315 49.5017 166.965 49.4891 167.613 49.4863C167.76 49.4863 167.886 49.4599 167.891 49.2662C167.895 49.0711 167.774 49.039 167.623 49.0376C167.252 49.0348 166.882 49.0348 166.51 49.0348C165.152 49.0348 165.17 49.0348 165.211 47.6566C165.222 47.272 165.359 47.194 165.701 47.2052C166.397 47.2261 167.092 47.2135 167.787 47.2093C167.964 47.2079 168.179 47.2525 168.19 46.9669C168.201 46.6784 167.994 46.7035 167.81 46.7035C166.905 46.7021 166.001 46.7146 165.098 46.6965C164.764 46.6895 164.651 46.8038 164.66 47.1355C164.68 47.8517 164.666 48.5708 164.666 49.2885ZM128.043 48.5973C128.049 48.5973 128.056 48.5973 128.061 48.5973C128.061 48.1332 128.074 47.6706 128.056 47.2079C128.047 47.0128 128.188 46.6951 127.787 46.7077C127.409 46.7188 127.516 47.0184 127.513 47.2247C127.502 48.1054 127.526 48.9861 127.497 49.8654C127.461 50.9565 126.885 51.4707 125.812 51.4233C124.901 51.3829 124.427 50.8743 124.385 49.8096C124.35 48.9303 124.378 48.0496 124.37 47.1689C124.368 46.9766 124.441 46.7244 124.111 46.7035C123.777 46.6826 123.812 46.9209 123.815 47.1257C123.823 48.1221 123.791 49.1198 123.858 50.112C123.935 51.2617 124.717 51.9236 125.898 51.9501C127.087 51.9765 127.925 51.2812 128.036 50.126C128.083 49.6201 128.043 49.1073 128.043 48.5973ZM71.4844 48.6446C71.4844 48.104 71.4998 47.6636 71.4775 47.2247C71.4677 47.0324 71.6252 46.716 71.2252 46.7091C70.8406 46.7021 70.9424 47.0031 70.9396 47.2107C70.9284 48.09 70.9507 48.9707 70.9256 49.85C70.8936 50.9398 70.3222 51.4651 69.2562 51.4261C68.4424 51.3968 67.9602 50.9927 67.846 50.1831C67.7024 49.17 67.8125 48.1486 67.7819 47.1299C67.7763 46.9237 67.8153 46.6909 67.485 46.7049C67.198 46.7174 67.2314 46.9264 67.2342 47.1048C67.2481 48.1458 67.2161 49.1909 67.2997 50.2277C67.3847 51.2686 68.1247 51.872 69.2311 51.9445C70.3055 52.0142 71.1012 51.4665 71.3841 50.4785C71.5667 49.8389 71.4384 49.1881 71.4844 48.6446ZM120.695 46.6826C120.741 46.6826 120.624 46.6742 120.51 46.684C119.625 46.762 119.045 47.2261 118.963 47.9131C118.871 48.6823 119.218 49.1184 120.178 49.4167C120.597 49.5463 121.029 49.634 121.445 49.7734C121.843 49.9086 122.148 50.1552 122.098 50.6346C122.048 51.0986 121.712 51.3132 121.304 51.3913C120.625 51.5209 119.97 51.4428 119.359 51.0847C119.239 51.0136 119.109 50.7447 118.924 51.0373C118.745 51.3202 118.971 51.415 119.143 51.5111C119.901 51.9389 120.71 52.0657 121.552 51.8288C122.181 51.6519 122.622 51.2854 122.654 50.5733C122.685 49.8807 122.289 49.5072 121.682 49.3135C121.198 49.1589 120.701 49.0474 120.22 48.8843C119.834 48.7547 119.484 48.5485 119.505 48.0636C119.527 47.5744 119.838 47.3487 120.285 47.2219C120.857 47.0602 121.381 47.1884 121.91 47.3807C122.052 47.4323 122.221 47.665 122.357 47.3529C122.494 47.0435 122.246 47.0087 122.068 46.9278C121.683 46.7564 121.282 46.6589 120.695 46.6826ZM92.3941 46.6686C92.2325 46.6784 92.0694 46.677 91.9092 46.7007C91.0689 46.8303 90.5505 47.3097 90.4989 47.9967C90.4474 48.6837 90.7999 49.1101 91.682 49.393C92.1001 49.5267 92.5307 49.6173 92.9473 49.7539C93.3668 49.8918 93.7138 50.1204 93.6497 50.643C93.5884 51.146 93.2149 51.3327 92.7829 51.4038C92.1517 51.5083 91.5413 51.4303 90.9658 51.1181C90.825 51.0415 90.6662 50.7238 90.4753 51.0485C90.2899 51.3634 90.5881 51.454 90.7749 51.5529C91.5664 51.9724 92.4025 52.0741 93.2553 51.7801C93.8211 51.585 94.1918 51.2031 94.2113 50.5566C94.2322 49.896 93.8643 49.5267 93.2902 49.3303C92.7453 49.1449 92.1837 49.0056 91.6374 48.8216C91.2821 48.7018 91.0313 48.4482 91.048 48.0524C91.0647 47.6399 91.3267 47.3821 91.7113 47.2525C92.3412 47.0407 92.9432 47.1536 93.5312 47.4128C93.6748 47.4755 93.8197 47.5995 93.9172 47.3487C93.9953 47.148 93.9005 47.0435 93.7361 46.971C93.3097 46.7843 92.8693 46.6533 92.3941 46.6686ZM96.937 46.6728C96.7976 46.6798 96.6583 46.677 96.5203 46.6937C95.6563 46.8024 95.092 47.3013 95.0348 48.0008C94.9805 48.6669 95.3609 49.1184 96.2319 49.3958C96.6499 49.5281 97.0819 49.6187 97.4972 49.7567C97.9138 49.896 98.2803 50.1246 98.2093 50.6416C98.1438 51.1251 97.7745 51.3327 97.3369 51.4052C96.7043 51.5083 96.0953 51.4331 95.5184 51.1237C95.3749 51.0471 95.2076 50.728 95.0209 51.0624C94.8425 51.3801 95.1463 51.4609 95.3317 51.5585C96.0535 51.9389 96.8171 52.0476 97.6156 51.8428C98.3221 51.6616 98.7764 51.1711 98.7764 50.551C98.7764 49.8723 98.3737 49.4989 97.7633 49.3094C97.2352 49.1449 96.7001 48.9986 96.1761 48.8188C95.8236 48.6976 95.5713 48.4579 95.5936 48.0496C95.6173 47.6288 95.8807 47.3863 96.2611 47.2567C96.8924 47.0407 97.4972 47.1564 98.0811 47.4211C98.2511 47.4978 98.3737 47.5521 98.4726 47.3431C98.573 47.1313 98.4308 47.0421 98.2789 46.9738C97.8525 46.7801 97.4108 46.6519 96.937 46.6728ZM74.6714 46.6854C74.5557 46.6854 74.4387 46.6756 74.3244 46.6868C73.4228 46.7704 72.825 47.2665 72.7553 47.9855C72.6898 48.6614 73.0995 49.1407 74.0025 49.4181C74.422 49.5463 74.8567 49.6285 75.2692 49.7734C75.658 49.9086 75.9841 50.1413 75.9297 50.6276C75.8782 51.0903 75.5465 51.3049 75.141 51.3885C74.4624 51.5264 73.806 51.4442 73.1943 51.0958C73.0549 51.0164 72.9128 50.7739 72.7456 51.0443C72.5839 51.3035 72.7929 51.4205 72.9783 51.5223C73.7405 51.9417 74.5488 52.0629 75.3905 51.8274C76.0231 51.6505 76.4621 51.2631 76.4899 50.5649C76.5178 49.8807 76.1039 49.5072 75.4978 49.3135C75.0588 49.1728 74.6115 49.0543 74.1697 48.9206C73.7029 48.7798 73.2584 48.5778 73.3183 47.9953C73.3754 47.4434 73.82 47.2706 74.3007 47.1759C74.801 47.0769 75.2609 47.2065 75.7207 47.3807C75.8712 47.4379 76.0524 47.6413 76.1806 47.3584C76.3144 47.0644 76.0691 47.0115 75.8824 46.9278C75.4964 46.7537 75.095 46.6617 74.6714 46.6854ZM104.098 46.6742C103.707 46.6533 103.28 46.7606 102.883 46.9585C101.922 47.4393 101.441 48.2433 101.437 49.3024C101.432 50.3656 101.916 51.1892 102.88 51.6477C103.867 52.1159 104.854 52.0546 105.77 51.4177C105.895 51.3313 106.067 51.2547 105.913 51.0457C105.766 50.8492 105.624 50.8645 105.458 51.0164C105.391 51.0777 105.308 51.1237 105.227 51.1683C104.469 51.5891 103.42 51.4986 102.745 50.9565C102.082 50.4228 101.813 49.4696 102.09 48.6307C102.379 47.757 103.12 47.2079 104.08 47.1773C104.576 47.1619 105.051 47.2623 105.449 47.58C105.623 47.7207 105.757 47.7612 105.907 47.5661C106.106 47.3097 105.839 47.2414 105.72 47.1536C105.26 46.815 104.73 46.67 104.098 46.6742ZM177.89 46.6742C175.848 46.6659 174.567 48.5959 175.399 50.4284C176.075 51.9166 178.228 52.4434 179.478 51.4247C179.588 51.3341 179.798 51.277 179.639 51.0582C179.507 50.8771 179.369 50.8339 179.191 51.0053C179.108 51.0833 179.004 51.1418 178.902 51.1962C178.099 51.624 176.974 51.4596 176.324 50.8241C175.694 50.2082 175.519 49.2007 175.896 48.3827C176.433 47.2205 177.911 46.8247 179.099 47.5284C179.27 47.6302 179.414 47.8336 179.613 47.573C179.844 47.272 179.519 47.2177 179.39 47.1243C178.95 46.8024 178.437 46.6728 177.89 46.6742ZM180.02 46.7801C180.457 47.5006 180.859 48.2336 181.33 48.9164C181.848 49.6647 182.196 50.4339 182.064 51.3718C182.038 51.5627 181.933 51.886 182.329 51.8776C182.719 51.8692 182.61 51.5501 182.585 51.3578C182.458 50.4214 182.798 49.6508 183.318 48.9025C183.791 48.2224 184.189 47.4908 184.62 46.7815C184.551 46.7272 184.482 46.6742 184.413 46.6199C183.412 47.3264 183.147 48.6516 182.301 49.5421C181.771 48.6795 181.264 47.8754 180.782 47.0574C180.605 46.7592 180.413 46.6004 180.02 46.7801ZM134.586 49.6048C134.586 50.2082 134.581 50.8116 134.588 51.415C134.591 51.6296 134.502 51.9097 134.898 51.8846C135.242 51.8623 135.147 51.6101 135.149 51.4233C135.156 50.5175 135.139 49.6131 135.157 48.7074C135.167 48.2266 134.947 47.6176 135.261 47.3069C135.491 47.0797 136.092 47.2302 136.528 47.2121C136.552 47.2107 136.574 47.2107 136.598 47.2121C136.796 47.2149 136.978 47.2052 136.962 46.9278C136.946 46.6895 136.776 46.7007 136.613 46.7007C135.452 46.6993 134.292 46.6993 133.131 46.7007C132.969 46.7007 132.794 46.6798 132.777 46.9195C132.757 47.187 132.925 47.1996 133.131 47.2163C133.605 47.2553 134.268 46.9836 134.505 47.3459C134.74 47.7068 134.577 48.3297 134.586 48.8383C134.588 49.0948 134.586 49.3498 134.586 49.6048ZM129.712 49.2606C129.712 50.0005 129.724 50.7405 129.707 51.4805C129.7 51.7745 129.785 51.8888 130.096 51.8832C130.975 51.8665 131.853 51.8804 132.732 51.8748C132.901 51.8734 133.145 51.9389 133.156 51.6588C133.17 51.3035 132.877 51.4247 132.7 51.4205C132.052 51.4066 131.404 51.3913 130.758 51.4233C130.36 51.4428 130.252 51.3118 130.259 50.9217C130.282 49.6508 130.266 48.3785 130.268 47.1062C130.268 46.8791 130.257 46.6882 129.947 46.7063C129.646 46.723 129.717 46.9446 129.714 47.1104C129.708 47.8267 129.712 48.5443 129.712 49.2606ZM78.2318 49.2592C78.2318 48.5401 78.2346 47.8211 78.2304 47.1034C78.229 46.9264 78.2709 46.716 77.9838 46.6979C77.6702 46.6784 77.6605 46.8832 77.6605 47.1048C77.6605 48.5652 77.6619 50.0256 77.6591 51.486C77.6591 51.7174 77.6786 51.9069 77.9852 51.8888C78.2695 51.8706 78.2318 51.6672 78.2318 51.486C78.2332 50.7433 78.2318 50.0019 78.2318 49.2592ZM138.369 49.3275C138.369 48.5861 138.373 47.8462 138.366 47.1048C138.365 46.9348 138.428 46.7174 138.128 46.7035C137.816 46.6895 137.809 46.886 137.81 47.1104C137.813 48.5694 137.814 50.027 137.809 51.486C137.807 51.7229 137.83 51.8957 138.133 51.8818C138.439 51.8679 138.365 51.6491 138.366 51.4805C138.373 50.7628 138.369 50.0451 138.369 49.3275Z" fill="#404041"/>
<path d="M20.1041 41.3663C19.2917 41.3663 18.4793 41.3677 17.6669 41.3663C16.1981 41.3621 15.4526 40.8674 14.8924 39.506C11.1842 30.4983 7.47888 21.4906 3.77213 12.4829C2.6183 9.67917 1.51185 6.85591 0.295313 4.08142C-0.631374 1.96607 0.714761 -0.189702 3.05029 0.0123581C4.15674 0.108511 5.27713 0.0276868 6.39194 0.0290803C7.98473 0.0304738 8.70239 0.515417 9.30578 1.99951C12.2015 9.13988 15.0972 16.2789 17.9874 23.422C18.3093 24.2177 18.7064 24.927 19.5509 25.2754C20.8984 25.8314 22.2501 25.2197 22.8661 23.7411C24.0311 20.943 25.1793 18.1378 26.3331 15.3355C28.1656 10.8846 29.9939 6.43368 31.8278 1.98418C32.4409 0.494514 33.1405 0.0304738 34.7514 0.0304738C35.6335 0.0304738 36.5211 0.0917885 37.3977 0.0179322C39.6078 -0.167405 40.9344 1.9814 40.083 3.98109C38.1961 8.40829 36.3915 12.8703 34.5619 17.3212C31.6397 24.4254 28.7244 31.5309 25.805 38.6364C25.6559 39.0001 25.4887 39.3555 25.3284 39.715C24.8323 40.8284 23.9767 41.3802 22.7532 41.3691C21.8683 41.3593 20.9862 41.3663 20.1041 41.3663Z" fill="#074550"/>
<path d="M107.392 29.9244C106.152 31.8056 104.392 32.9037 102.306 33.6409C104.623 36.8919 106.903 40.0914 109.261 43.3996C108.167 43.3996 107.2 43.3913 106.234 43.4038C105.878 43.408 105.776 43.1335 105.62 42.9147C103.68 40.1973 101.738 37.4814 99.8158 34.7515C99.5594 34.3864 99.3086 34.2512 98.8543 34.2777C95.9558 34.4505 93.0531 34.3474 90.1518 34.3516C89.6028 34.3516 89.4537 34.4979 89.4606 35.0469C89.4899 37.5998 89.4523 40.1528 89.4899 42.7057C89.4983 43.3077 89.3157 43.4624 88.7499 43.4122C88.1744 43.362 87.5878 43.3732 87.0108 43.4094C86.5663 43.4373 86.4715 43.2673 86.4715 42.852C86.4827 33.7078 86.4827 24.5649 86.4688 15.4207C86.4674 14.9692 86.6179 14.8911 87.0262 14.8925C90.6019 14.9078 94.1763 14.8911 97.752 14.9092C99.7197 14.919 101.634 15.2646 103.432 16.0784C106.396 17.419 108.176 19.7001 108.718 23.0627C109.302 21.9702 109.839 20.9822 110.55 20.1056C112.77 17.3646 115.635 15.6798 119.076 14.9998C123.391 14.147 127.494 14.7267 131.199 17.1862C134.949 19.6751 136.959 23.2508 137.385 27.7142C137.712 31.152 137.003 34.3571 135.076 37.2459C132.926 40.4719 129.889 42.4395 126.127 43.238C121.778 44.1619 117.621 43.6198 113.85 41.1575C110.032 38.6645 108.007 35.0581 107.561 30.5417C107.541 30.3661 107.593 30.1724 107.392 29.9244ZM110.476 29.1036C110.466 35.9025 115.563 40.9526 122.441 40.9638C129.304 40.9735 134.438 35.9541 134.449 29.222C134.461 22.4036 129.378 17.3298 122.522 17.32C115.628 17.3089 110.486 22.3381 110.476 29.1036ZM89.4718 24.6415C89.4718 26.8224 89.4871 29.0032 89.4606 31.1841C89.4551 31.6732 89.5888 31.8028 90.0752 31.7972C92.5584 31.7722 95.0417 31.7889 97.5249 31.7819C98.761 31.7777 99.9719 31.5924 101.151 31.2148C105.943 29.6833 107.5 23.1519 103.893 19.6625C102.418 18.2356 100.549 17.7144 98.57 17.5722C95.7203 17.3702 92.8636 17.529 90.0097 17.4761C89.5805 17.4677 89.4592 17.6043 89.4634 18.0279C89.4829 20.2325 89.4718 22.437 89.4718 24.6415Z" fill="#404041"/>
<path d="M36.5224 51.9461C35.6863 51.9461 34.8516 51.9461 34.0155 51.9461C32.8505 51.9461 32.0102 51.4277 31.5643 50.3463C30.0802 46.7552 28.6114 43.1572 27.1259 39.5661C26.981 39.2149 27.0075 38.9069 27.1496 38.5655C28.4637 35.405 29.7694 32.239 31.0765 29.0757C31.103 29.0116 31.1392 28.9517 31.1615 28.8862C31.2535 28.613 31.3636 28.333 31.7078 28.3525C32.0074 28.3692 32.0938 28.6395 32.1913 28.8806C32.9285 30.7033 33.6699 32.5246 34.4098 34.346C34.4879 34.5383 34.5673 34.7306 34.6495 34.9229C35.0787 35.9388 35.8201 36.5268 36.946 36.5157C38.0399 36.5045 38.7673 35.9262 39.1784 34.934C40.0563 32.8187 40.9287 30.7019 41.801 28.5838C43.5638 24.3057 45.3224 20.0276 47.0866 15.7509C47.6454 14.3964 48.3269 13.9477 49.8054 13.9449C50.7335 13.9435 51.6629 13.9421 52.591 13.9449C54.7092 13.9519 55.8658 15.6784 55.0645 17.6628C54.2772 19.6151 53.4661 21.5577 52.6663 23.5044C49.1393 32.0843 45.6137 40.6642 42.0881 49.2426C42.0268 49.3918 41.9613 49.5409 41.9097 49.6941C41.337 51.3733 40.1943 52.1412 38.4022 51.9558C37.7807 51.8917 37.1495 51.9461 36.5224 51.9461Z" fill="#074550"/>
<path d="M164.669 29.1314C164.669 24.629 164.679 20.1266 164.656 15.6241C164.654 15.0765 164.741 14.8772 165.354 14.8841C168.791 14.919 172.227 14.8897 175.662 14.9078C178.302 14.9218 180.831 15.4067 183.077 16.8894C185.612 18.563 186.822 21.0003 186.98 23.974C187.291 29.7794 183.786 33.2744 178.388 34.1495C175.437 34.6289 172.456 34.3307 169.489 34.4157C168.895 34.4324 168.109 34.1481 167.767 34.5508C167.475 34.8936 167.664 35.6545 167.662 36.2314C167.657 38.4137 167.647 40.5945 167.67 42.7768C167.676 43.245 167.58 43.4456 167.068 43.408C166.468 43.362 165.859 43.362 165.26 43.408C164.747 43.4484 164.658 43.2478 164.659 42.7809C164.676 38.2297 164.669 33.6813 164.669 29.1314ZM167.661 24.6513C167.661 26.8321 167.673 29.013 167.651 31.1939C167.647 31.6509 167.778 31.7791 168.238 31.7749C170.697 31.7513 173.158 31.7749 175.618 31.7568C176.687 31.7485 177.748 31.6189 178.785 31.3471C183.941 29.9954 185.856 23.4766 182.178 19.7601C180.694 18.2592 178.784 17.72 176.755 17.5736C173.905 17.3688 171.047 17.5304 168.194 17.4761C167.754 17.4677 167.65 17.6252 167.652 18.0391C167.669 20.2422 167.661 22.4468 167.661 24.6513Z" fill="#404041"/>
<path d="M83.8818 34.6121C83.8818 36.1436 83.8428 37.6765 83.9 39.2066C83.925 39.8754 83.6645 40.2559 83.16 40.6279C80.7994 42.3698 78.1336 43.284 75.2421 43.5501C71.1061 43.9306 67.2349 43.16 63.8849 40.582C59.6932 37.3574 57.9945 32.9706 58.4321 27.8048C58.885 22.4454 61.5522 18.3888 66.4908 16.1787C71.8349 13.7874 77.1623 13.9881 82.2194 17.1779C82.8855 17.5973 83.8303 18.0906 83.886 18.7428C83.9362 19.3294 82.9343 19.8255 82.4396 20.4025C82.2459 20.6282 82.1149 20.6296 81.8905 20.4136C77.8005 16.4644 70.7006 16.4825 66.3974 19.4117C63.4418 21.4225 61.7904 24.2332 61.4226 27.7853C61.017 31.6941 62.1291 35.0929 65.0318 37.7852C67.8216 40.3715 71.2204 41.2007 74.941 40.9011C76.8613 40.7464 78.6631 40.2085 80.3284 39.2107C80.798 38.9292 80.9987 38.638 80.9917 38.068C80.9583 35.3075 80.9903 32.5455 80.9638 29.7836C80.9583 29.2666 81.0837 29.0841 81.6146 29.1286C82.1901 29.1774 82.7768 29.1705 83.3537 29.13C83.7927 29.0994 83.8972 29.2471 83.8916 29.6721C83.8679 31.3165 83.8818 32.965 83.8818 34.6121Z" fill="#404041"/>
<path d="M141.057 24.6638C141.112 27.0203 140.914 29.9034 141.154 32.7741C141.422 35.9806 142.474 38.7913 145.682 40.189C147.948 41.177 150.33 41.1895 152.711 40.6084C155.135 40.0162 156.802 38.5293 157.722 36.2105C158.328 34.6804 158.555 33.0793 158.558 31.4461C158.566 26.2246 158.577 21.0017 158.545 15.7802C158.541 15.0597 158.715 14.8019 159.441 14.8911C159.944 14.9524 160.464 14.9343 160.971 14.8939C161.414 14.8577 161.512 15.0179 161.505 15.4388C161.48 17.0636 161.495 18.6884 161.495 20.3133C161.494 24.119 161.509 27.926 161.486 31.7317C161.473 33.7398 161.14 35.6991 160.332 37.5552C159.142 40.2865 157.113 42.1287 154.275 42.9955C151.226 43.9278 148.141 43.9264 145.102 42.9203C141.675 41.7859 139.621 39.3361 138.646 35.929C138.249 34.5424 138.065 33.1155 138.065 31.6704C138.063 26.2859 138.069 20.9013 138.051 15.5168C138.049 15.0472 138.14 14.8535 138.65 14.8939C139.251 14.9413 139.858 14.9385 140.459 14.8953C140.958 14.859 141.072 15.0346 141.068 15.514C141.045 18.3874 141.057 21.265 141.057 24.6638Z" fill="#404041"/>
<path d="M83.701 50.6208C83.701 49.5938 83.6801 48.5654 83.715 47.5398C83.7233 47.2653 83.4739 46.7608 83.9351 46.7357C84.5218 46.7037 84.2236 47.2639 84.232 47.5356C84.271 48.787 84.2557 50.0411 84.2417 51.2939C84.2389 51.4946 84.3908 51.7886 84.0424 51.8722C83.7554 51.9405 83.6355 51.705 83.4948 51.5266C82.6726 50.4913 81.8532 49.4545 81.0297 48.4191C80.8917 48.2463 80.7426 48.0833 80.4597 47.753C80.4597 48.9361 80.4597 49.9199 80.4597 50.9023C80.4597 51.0654 80.4667 51.227 80.4583 51.3901C80.4458 51.6019 80.5531 51.8959 80.1615 51.8778C79.8257 51.8625 79.9093 51.6047 79.9093 51.4138C79.9037 50.0216 79.9023 48.6295 79.9121 47.2374C79.9135 47.0507 79.802 46.7901 80.0974 46.712C80.3468 46.6465 80.4681 46.8402 80.5991 47.0061C81.4352 48.0596 82.2727 49.1131 83.113 50.1638C83.2495 50.3352 83.4 50.4954 83.5436 50.6599C83.5937 50.6473 83.6467 50.6348 83.701 50.6208Z" fill="#404041"/>
<path d="M65.0903 49.2176C65.833 49.5646 66.1702 50.0885 65.9919 50.8466C65.8442 51.4751 65.3188 51.8207 64.4256 51.8611C63.6619 51.8959 62.8955 51.8639 62.1304 51.8889C61.7918 51.9001 61.6984 51.7775 61.7012 51.45C61.7166 50.0133 61.7152 48.5752 61.7026 47.1384C61.6998 46.8152 61.7876 46.6814 62.1318 46.6939C62.7798 46.7176 63.432 46.673 64.0786 46.7148C64.7349 46.7566 65.3913 46.8765 65.6714 47.6039C65.925 48.2616 65.6505 48.7703 65.0903 49.2176ZM63.5323 51.4235C63.91 51.3984 64.3517 51.4737 64.7837 51.3385C65.2352 51.1978 65.493 50.9093 65.4735 50.4258C65.4554 49.9784 65.2087 49.7178 64.7767 49.5938C64.1831 49.4224 63.5769 49.5451 62.9833 49.4796C62.4119 49.4155 62.2308 49.5966 62.2517 50.1861C62.2963 51.4235 62.2628 51.4249 63.5323 51.4235ZM63.393 49.0448C63.7135 49.0211 64.0828 49.081 64.4506 48.9723C64.898 48.8399 65.2045 48.5919 65.1962 48.1014C65.1864 47.5788 64.8631 47.2973 64.3698 47.2402C63.9336 47.19 63.4877 47.2276 63.0529 47.1719C62.4273 47.0925 62.2182 47.3015 62.2531 47.9523C62.3088 49.042 62.2656 49.0448 63.393 49.0448Z" fill="#404041"/>
<path d="M173.371 50.6571C173.371 49.5269 173.365 48.3954 173.376 47.2653C173.379 47.0437 173.245 46.6911 173.679 46.712C174.065 46.7302 173.913 47.0548 173.914 47.2499C173.927 48.6198 173.927 49.9882 173.914 51.358C173.913 51.5364 174.051 51.8026 173.736 51.8778C173.488 51.9363 173.361 51.7608 173.227 51.5921C172.364 50.4996 171.502 49.4071 170.631 48.3202C170.508 48.1669 170.434 47.9523 170.142 47.877C170.142 49.0504 170.149 50.2 170.135 51.3483C170.132 51.5392 170.294 51.8569 169.897 51.8792C169.458 51.9043 169.587 51.5629 169.586 51.3399C169.577 49.9701 169.577 48.6016 169.587 47.2318C169.589 47.0493 169.466 46.7873 169.777 46.7134C170.028 46.6549 170.15 46.8389 170.281 47.0047C171.261 48.2365 172.242 49.4656 173.221 50.6961C173.273 50.6836 173.322 50.6696 173.371 50.6571Z" fill="#404041"/>
<path d="M143.825 50.8508C143.825 49.5423 143.817 48.4191 143.832 47.2945C143.835 47.0771 143.683 46.7176 144.105 46.7148C144.544 46.7106 144.363 47.0827 144.366 47.2875C144.383 48.6309 144.38 49.9742 144.369 51.3176C144.367 51.5015 144.5 51.7635 144.231 51.8625C143.96 51.9614 143.817 51.7524 143.668 51.5642C142.692 50.3296 141.713 49.0977 140.602 47.7C140.602 48.9207 140.627 49.9631 140.585 51.0041C140.574 51.2897 140.86 51.8332 140.353 51.8471C139.769 51.8625 140.068 51.2842 140.059 50.9901C140.021 49.7401 140.036 48.4888 140.049 47.2374C140.05 47.0576 139.921 46.7942 140.227 46.7148C140.475 46.6507 140.603 46.8319 140.736 46.9977C141.584 48.0679 142.434 49.1381 143.286 50.2056C143.422 50.377 143.566 50.5414 143.825 50.8508Z" fill="#404041"/>
<path d="M113.845 47.8728C113.845 49.0685 113.849 50.2404 113.839 51.4124C113.838 51.5893 113.958 51.8569 113.604 51.8806C113.223 51.9057 113.286 51.6409 113.286 51.4151C113.285 50.0244 113.281 48.6337 113.292 47.243C113.293 47.0632 113.161 46.7998 113.459 46.7162C113.703 46.6479 113.838 46.8263 113.97 46.9935C114.819 48.0651 115.669 49.1354 116.521 50.2042C116.657 50.3756 116.805 50.54 117.064 50.8452C117.064 49.5506 117.056 48.4274 117.071 47.3057C117.074 47.0883 116.915 46.7329 117.333 46.7148C117.782 46.6953 117.603 47.0702 117.605 47.275C117.621 48.5724 117.623 49.8711 117.605 51.1685C117.602 51.3984 117.768 51.7245 117.476 51.8541C117.143 52.0018 116.999 51.6729 116.83 51.4611C115.978 50.3923 115.13 49.3207 114.276 48.2533C114.171 48.1195 114.11 47.9286 113.845 47.8728Z" fill="#404041"/>
<path d="M112.063 49.3026C112.067 50.809 110.899 51.9489 109.355 51.9461C107.825 51.9433 106.629 50.7867 106.625 49.3068C106.621 47.8227 107.808 46.6786 109.352 46.6758C110.921 46.6744 112.06 47.7767 112.063 49.3026ZM111.508 49.2733C111.494 48.0415 110.563 47.1468 109.323 47.1691C108.088 47.1928 107.153 48.1334 107.174 49.3332C107.195 50.5442 108.136 51.4361 109.383 51.4277C110.631 51.4179 111.522 50.5163 111.508 49.2733Z" fill="#404041"/>
<path d="M85.9249 49.2747C85.9249 48.5557 85.9318 47.8352 85.9221 47.1161C85.9179 46.8402 85.9792 46.6897 86.3053 46.6967C87.2334 46.7134 88.1628 46.7023 89.0909 46.7023C89.2818 46.7023 89.4797 46.6869 89.4616 46.9754C89.4435 47.2639 89.2275 47.2095 89.0533 47.2109C88.3565 47.2151 87.6598 47.2276 86.9644 47.2067C86.6174 47.1956 86.4864 47.282 86.4739 47.6638C86.4321 49.0364 86.4154 49.035 87.7866 49.035C88.0416 49.035 88.3022 49.0072 88.5516 49.0434C88.7621 49.074 89.1592 48.8567 89.1369 49.2775C89.116 49.6537 88.7342 49.4684 88.5168 49.4809C88.0082 49.5088 87.494 49.5144 86.9853 49.4823C86.5784 49.4559 86.4823 49.6105 86.4753 49.9965C86.446 51.4124 86.4321 51.411 87.873 51.411C88.337 51.411 88.8025 51.4096 89.2665 51.4124C89.4268 51.4138 89.5968 51.3942 89.5912 51.6465C89.587 51.8945 89.4184 51.882 89.2554 51.882C88.2576 51.8834 87.2584 51.8722 86.2607 51.8889C85.8928 51.8945 85.9249 51.6702 85.9249 51.4319C85.9262 50.7128 85.9249 49.9938 85.9249 49.2747Z" fill="#404041"/>
<path d="M158.096 51.7412C158.041 51.9767 157.841 51.8848 157.708 51.8694C157.487 51.843 157.431 51.6242 157.392 51.4542C157.195 50.6167 156.659 50.3672 155.86 50.508C155.681 50.54 155.486 50.54 155.306 50.508C154.435 50.3533 153.832 50.6111 153.621 51.535C153.563 51.7914 153.383 51.9739 153.119 51.8653C152.785 51.7287 153.067 51.5099 153.133 51.3636C153.767 49.9506 154.418 48.5445 155.065 47.1371C155.158 46.9336 155.201 46.6981 155.519 46.6953C155.833 46.6925 155.891 46.9169 155.986 47.1245C156.641 48.5529 157.297 49.9826 157.952 51.411C158 51.5183 158.044 51.6242 158.096 51.7412ZM154.311 50.0105C155.164 50.0105 155.912 50.0105 156.731 50.0105C156.33 49.1131 155.954 48.27 155.525 47.3071C155.098 48.256 154.726 49.0852 154.311 50.0105Z" fill="#404041"/>
<path d="M163.132 50.3435C163.132 51.4402 162.954 51.6479 161.816 51.8652C160.557 52.1063 159.392 51.6214 158.822 50.6194C158.277 49.6593 158.402 48.3815 159.123 47.5676C159.868 46.7246 161.217 46.4277 162.321 46.8695C162.47 46.9294 162.623 46.9991 162.746 47.098C162.885 47.2095 163.183 47.2625 163.019 47.5453C162.859 47.8199 162.683 47.654 162.505 47.537C161.998 47.2025 161.437 47.1189 160.842 47.2165C159.938 47.3642 159.308 47.9244 159.107 48.7856C158.898 49.6872 159.152 50.4369 159.884 51.0027C160.519 51.4946 161.681 51.5629 162.329 51.1991C162.551 51.0751 162.6 50.9149 162.593 50.6905C162.583 50.3421 162.588 49.9951 162.591 49.6468C162.593 49.4879 162.563 49.3137 162.817 49.3095C163.062 49.3054 163.143 49.421 163.133 49.6482C163.125 49.8795 163.132 50.1122 163.132 50.3435Z" fill="#404041"/>
<path d="M150.229 50.3212C150.229 51.4792 150.078 51.6548 148.883 51.8764C147.622 52.1105 146.405 51.5545 145.885 50.5066C145.368 49.4656 145.572 48.2115 146.383 47.4269C147.231 46.6075 148.727 46.4138 149.742 47.0214C149.918 47.1273 150.318 47.1984 150.131 47.5342C149.925 47.9063 149.699 47.5579 149.504 47.4534C148.601 46.9698 147.424 47.1245 146.741 47.8282C146.086 48.5041 145.965 49.5757 146.451 50.4021C146.935 51.2256 147.996 51.6158 149.003 51.3608C149.486 51.2382 149.797 51.0278 149.708 50.455C149.666 50.1833 149.702 49.899 149.702 49.6203C149.701 49.435 149.749 49.3095 149.972 49.3082C150.205 49.3068 150.23 49.4447 150.227 49.6231C150.226 49.8572 150.229 50.0885 150.229 50.3212Z" fill="#404041"/>
<path d="M164.666 49.2886C164.666 48.5696 164.679 47.8519 164.661 47.1329C164.652 46.8012 164.764 46.6883 165.098 46.6939C166.003 46.712 166.907 46.6995 167.81 46.7009C167.995 46.7009 168.203 46.6758 168.19 46.9643C168.179 47.2499 167.965 47.2067 167.788 47.2067C167.092 47.2109 166.396 47.2235 165.702 47.2026C165.36 47.1928 165.224 47.2694 165.211 47.6541C165.171 49.0322 165.153 49.0322 166.51 49.0322C166.88 49.0322 167.251 49.0322 167.623 49.035C167.774 49.0364 167.895 49.0685 167.891 49.2636C167.887 49.4587 167.761 49.4837 167.613 49.4837C166.964 49.4865 166.315 49.4991 165.667 49.481C165.346 49.4712 165.233 49.5646 165.214 49.9046C165.127 51.411 165.115 51.4096 166.584 51.4096C167.048 51.4096 167.512 51.4068 167.974 51.411C168.125 51.4124 168.312 51.3608 168.317 51.6228C168.323 51.8555 168.185 51.8806 168.005 51.8806C167.009 51.8792 166.011 51.8694 165.015 51.8848C164.665 51.8903 164.661 51.6925 164.663 51.4416C164.67 50.7268 164.666 50.0077 164.666 49.2886Z" fill="#404041"/>
<path d="M128.044 48.5975C128.044 49.1075 128.084 49.6203 128.035 50.1247C127.924 51.28 127.085 51.9753 125.898 51.9489C124.716 51.9224 123.934 51.2605 123.857 50.1108C123.791 49.1186 123.823 48.1195 123.814 47.1245C123.813 46.9197 123.777 46.6814 124.11 46.7023C124.44 46.7232 124.366 46.9768 124.369 47.1677C124.377 48.0484 124.349 48.9291 124.384 49.8084C124.426 50.8731 124.901 51.3817 125.811 51.4221C126.884 51.4695 127.461 50.9553 127.496 49.8642C127.525 48.9848 127.5 48.1028 127.513 47.2234C127.515 47.0172 127.408 46.7176 127.786 46.7065C128.189 46.6939 128.048 47.0116 128.055 47.2067C128.073 47.6694 128.06 48.1334 128.06 48.5961C128.055 48.5975 128.049 48.5975 128.044 48.5975Z" fill="#404041"/>
<path d="M71.4852 48.6448C71.4392 49.1883 71.5674 49.8405 71.3849 50.4787C71.102 51.4667 70.3063 52.0144 69.2319 51.9447C68.1254 51.8736 67.3841 51.2688 67.3005 50.2279C67.2169 49.1925 67.2489 48.146 67.235 47.105C67.2322 46.9266 67.1987 46.7162 67.4858 46.7051C67.8161 46.6911 67.7771 46.9252 67.7826 47.1301C67.8133 48.1473 67.7032 49.1702 67.8467 50.1833C67.961 50.9929 68.4432 51.397 69.257 51.4263C70.3216 51.4653 70.8944 50.94 70.9264 49.8502C70.9515 48.9709 70.9292 48.0902 70.9403 47.2109C70.9431 47.0033 70.8414 46.7023 71.226 46.7092C71.6259 46.7162 71.4685 47.0325 71.4782 47.2248C71.5005 47.6638 71.4852 48.1041 71.4852 48.6448Z" fill="#404041"/>
<path d="M120.695 46.6828C121.282 46.6591 121.684 46.7566 122.069 46.9294C122.247 47.0089 122.495 47.0437 122.359 47.3545C122.221 47.6666 122.052 47.4339 121.912 47.3823C121.382 47.1886 120.858 47.0604 120.287 47.2235C119.839 47.3503 119.527 47.5774 119.506 48.0651C119.485 48.5501 119.835 48.7563 120.221 48.8859C120.702 49.0476 121.199 49.1604 121.683 49.3151C122.291 49.5088 122.686 49.8823 122.656 50.5749C122.624 51.2869 122.18 51.6548 121.553 51.8304C120.71 52.0673 119.902 51.9405 119.144 51.5127C118.973 51.4165 118.745 51.3218 118.925 51.0389C119.111 50.7463 119.24 51.0152 119.36 51.0863C119.972 51.4444 120.627 51.5211 121.305 51.3929C121.715 51.3148 122.051 51.1016 122.1 50.6362C122.151 50.1582 121.845 49.9102 121.446 49.775C121.031 49.6342 120.597 49.5478 120.179 49.4182C119.219 49.12 118.872 48.6839 118.964 47.9146C119.046 47.2276 119.626 46.7636 120.511 46.6856C120.624 46.6744 120.741 46.6828 120.695 46.6828Z" fill="#404041"/>
<path d="M92.3933 46.6688C92.8685 46.6521 93.3089 46.7845 93.7353 46.9712C93.8997 47.0437 93.9959 47.1468 93.9165 47.3489C93.8189 47.6011 93.674 47.4771 93.5304 47.413C92.9424 47.1538 92.339 47.0409 91.7105 47.2527C91.3273 47.3823 91.0653 47.6387 91.0472 48.0526C91.0305 48.4484 91.2813 48.702 91.6367 48.8218C92.1829 49.0058 92.7431 49.1451 93.2894 49.3305C93.8635 49.5269 94.2314 49.8962 94.2105 50.5567C94.191 51.2033 93.8203 51.5866 93.2545 51.7803C92.4017 52.0729 91.5656 51.9712 90.7741 51.5531C90.5873 51.4542 90.2891 51.3636 90.4745 51.0487C90.6654 50.7254 90.8242 51.0417 90.965 51.1183C91.5405 51.4305 92.1495 51.5085 92.7821 51.404C93.2141 51.3329 93.5876 51.1462 93.6489 50.6432C93.713 50.1192 93.366 49.892 92.9466 49.7541C92.5299 49.6161 92.0993 49.5269 91.6812 49.3932C90.7992 49.1103 90.4466 48.6839 90.4982 47.9969C90.5497 47.3099 91.0681 46.8305 91.9084 46.7009C92.0686 46.6772 92.2317 46.6786 92.3933 46.6688Z" fill="#404041"/>
<path d="M96.937 46.673C97.4122 46.6521 97.854 46.7817 98.2804 46.9726C98.4323 47.0409 98.5744 47.1287 98.4741 47.3419C98.3751 47.5509 98.2525 47.4966 98.0825 47.4199C97.4986 47.1552 96.8938 47.0395 96.2626 47.2555C95.8808 47.3865 95.6188 47.629 95.5951 48.0484C95.5714 48.4567 95.825 48.6964 96.1776 48.8176C96.7001 48.9974 97.2353 49.1437 97.7648 49.3082C98.3752 49.4991 98.7779 49.8725 98.7779 50.5498C98.7779 51.1699 98.3236 51.6604 97.6171 51.8416C96.8186 52.0464 96.0563 51.9377 95.3331 51.5573C95.1478 51.4597 94.8454 51.3789 95.0224 51.0612C95.2091 50.7281 95.3777 51.0459 95.5198 51.1225C96.0968 51.4333 96.7057 51.5085 97.3384 51.404C97.7759 51.3315 98.1452 51.1253 98.2107 50.6404C98.2818 50.122 97.9153 49.8948 97.4986 49.7555C97.0834 49.6161 96.6514 49.5269 96.2333 49.3946C95.3624 49.1172 94.9819 48.6644 95.0363 47.9996C95.0934 47.3015 95.6592 46.8012 96.5218 46.6925C96.657 46.6758 96.7977 46.6786 96.937 46.673Z" fill="#404041"/>
<path d="M74.671 46.6855C75.0946 46.6619 75.4974 46.7538 75.8834 46.9266C76.0701 47.0102 76.3154 47.0632 76.1816 47.3572C76.0534 47.6401 75.8722 47.4367 75.7217 47.3795C75.2619 47.2067 74.8006 47.0757 74.3017 47.1747C73.8196 47.2694 73.375 47.4436 73.3193 47.9941C73.2594 48.5766 73.7039 48.7786 74.1707 48.9194C74.6125 49.0517 75.0584 49.1716 75.4988 49.3123C76.1049 49.506 76.5188 49.8795 76.4909 50.5637C76.4631 51.2619 76.0227 51.6493 75.3915 51.8262C74.5498 52.0617 73.7429 51.9391 72.9793 51.521C72.7953 51.4193 72.5863 51.3037 72.7466 51.0431C72.9152 50.7727 73.0559 51.0152 73.1953 51.0946C73.807 51.443 74.4648 51.5252 75.142 51.3873C75.5475 51.3037 75.8792 51.0891 75.9308 50.6264C75.9851 50.1387 75.6604 49.9074 75.2702 49.7722C74.8564 49.6287 74.4216 49.5464 74.0035 49.4168C73.0991 49.1395 72.6894 48.6602 72.7563 47.9843C72.826 47.2653 73.4252 46.7692 74.3254 46.6855C74.4383 46.6758 74.5553 46.6855 74.671 46.6855Z" fill="#404041"/>
<path d="M104.098 46.6744C104.729 46.6702 105.259 46.8151 105.721 47.1538C105.84 47.2402 106.107 47.3098 105.908 47.5662C105.757 47.7599 105.624 47.7195 105.449 47.5802C105.052 47.2625 104.577 47.1621 104.081 47.1774C103.121 47.2081 102.38 47.7572 102.091 48.6309C101.814 49.4698 102.083 50.4229 102.746 50.9567C103.42 51.5001 104.47 51.5907 105.228 51.1685C105.309 51.1239 105.392 51.0779 105.459 51.0166C105.625 50.8647 105.767 50.8494 105.913 51.0458C106.068 51.2535 105.895 51.3315 105.771 51.4179C104.853 52.0548 103.866 52.1161 102.881 51.6478C101.917 51.1894 101.435 50.3658 101.438 49.3026C101.442 48.2435 101.922 47.4394 102.884 46.9587C103.28 46.7608 103.708 46.6535 104.098 46.6744Z" fill="#404041"/>
<path d="M177.89 46.6744C178.436 46.6716 178.949 46.8026 179.392 47.1245C179.522 47.2193 179.846 47.2736 179.615 47.5732C179.414 47.8338 179.271 47.6304 179.101 47.5286C177.914 46.8235 176.435 47.2207 175.899 48.3829C175.521 49.2009 175.697 50.207 176.326 50.8243C176.976 51.4598 178.102 51.6242 178.904 51.1964C179.006 51.142 179.111 51.0835 179.193 51.0055C179.373 50.8341 179.509 50.8773 179.642 51.0584C179.8 51.2758 179.59 51.3343 179.48 51.4249C178.23 52.4436 176.078 51.9168 175.401 50.4286C174.566 48.5975 175.847 46.6675 177.89 46.6744Z" fill="#404041"/>
<path d="M180.02 46.7803C180.413 46.6006 180.605 46.7608 180.78 47.0576C181.264 47.8742 181.77 48.6783 182.299 49.5423C183.145 48.6518 183.409 47.3266 184.412 46.6201C184.48 46.6744 184.55 46.7274 184.618 46.7817C184.188 47.491 183.79 48.2226 183.317 48.9026C182.795 49.651 182.457 50.423 182.584 51.358C182.61 51.5489 182.717 51.8694 182.327 51.8778C181.93 51.8862 182.035 51.5615 182.062 51.3719C182.196 50.4341 181.846 49.6649 181.328 48.9166C180.858 48.2337 180.458 47.5008 180.02 46.7803Z" fill="#404041"/>
<path d="M134.585 49.605C134.585 49.3499 134.588 49.0935 134.584 48.8385C134.575 48.3299 134.738 47.707 134.503 47.3461C134.266 46.9838 133.603 47.2555 133.129 47.2165C132.923 47.1998 132.755 47.1872 132.775 46.9197C132.792 46.6786 132.967 46.7009 133.129 46.7009C134.29 46.6995 135.451 46.6995 136.611 46.7009C136.774 46.7009 136.946 46.6897 136.96 46.928C136.976 47.2053 136.794 47.2165 136.596 47.2123C136.572 47.2123 136.55 47.2123 136.526 47.2123C136.09 47.2304 135.49 47.0799 135.26 47.3071C134.943 47.6178 135.165 48.2282 135.155 48.7075C135.137 49.6119 135.154 50.5177 135.147 51.4235C135.145 51.6102 135.24 51.8625 134.896 51.8847C134.502 51.9098 134.589 51.6297 134.587 51.4151C134.581 50.8117 134.585 50.2084 134.585 49.605Z" fill="#404041"/>
<path d="M129.711 49.2608C129.711 48.5445 129.707 47.8269 129.714 47.1106C129.716 46.9434 129.646 46.7232 129.947 46.7065C130.258 46.6897 130.269 46.8807 130.269 47.1064C130.266 48.3787 130.281 49.6496 130.259 50.9218C130.252 51.312 130.361 51.443 130.758 51.4235C131.405 51.3915 132.053 51.4068 132.701 51.4207C132.876 51.4249 133.17 51.3037 133.156 51.659C133.145 51.9391 132.901 51.8736 132.733 51.875C131.853 51.882 130.974 51.8667 130.096 51.8834C129.787 51.8889 129.702 51.7747 129.707 51.4806C129.721 50.7407 129.711 50.0007 129.711 49.2608Z" fill="#404041"/>
<path d="M78.2323 49.2594C78.2323 50.0007 78.2337 50.7435 78.2309 51.4848C78.2309 51.666 78.2686 51.8708 77.9843 51.8876C77.6777 51.9071 77.6582 51.7175 77.6582 51.4848C77.6624 50.0244 77.6596 48.564 77.6596 47.1036C77.6596 46.8821 77.6693 46.6758 77.9829 46.6967C78.27 46.7148 78.2281 46.9266 78.2295 47.1022C78.2351 47.8227 78.2323 48.5417 78.2323 49.2594Z" fill="#404041"/>
<path d="M138.369 49.3277C138.369 50.0453 138.373 50.763 138.366 51.4806C138.365 51.6493 138.437 51.868 138.133 51.882C137.83 51.8959 137.807 51.7231 137.809 51.4862C137.814 50.0272 137.813 48.5696 137.81 47.1106C137.81 46.8862 137.816 46.6897 138.128 46.7037C138.427 46.7176 138.365 46.935 138.366 47.105C138.373 47.8464 138.369 48.5863 138.369 49.3277Z" fill="#404041"/>
</g>
<defs>
<clipPath id="clip0_655_5634">
<rect width="187" height="51.9823" fill="white"/>
</clipPath>
</defs>
</svg>
