<svg width="37" height="37" viewBox="0 0 37 37" fill="none" xmlns="http://www.w3.org/2000/svg">
<g id="ic:baseline-whatsapp">
<path id="Vector" d="M29.3685 7.56958C27.9551 6.14188 26.2716 5.0099 24.4161 4.23966C22.5606 3.46941 20.5704 3.07633 18.5614 3.08333C10.1439 3.08333 3.28349 9.94374 3.28349 18.3612C3.28349 21.0592 3.99266 23.68 5.31849 25.9925L3.16016 33.9167L11.2539 31.7892C13.4893 33.0071 16.0022 33.6546 18.5614 33.6546C26.9789 33.6546 33.8393 26.7942 33.8393 18.3767C33.8393 14.2912 32.2514 10.4525 29.3685 7.56958ZM18.5614 31.0646C16.2797 31.0646 14.0443 30.4479 12.0864 29.2917L11.6239 29.0142L6.81391 30.2783L8.09349 25.5917L7.78516 25.1137C6.51751 23.0895 5.84441 20.7497 5.84266 18.3612C5.84266 11.3621 11.5468 5.65791 18.546 5.65791C21.9377 5.65791 25.1289 6.98375 27.5185 9.38875C28.7017 10.5665 29.6394 11.9674 30.2771 13.5103C30.9149 15.0531 31.2401 16.7072 31.2339 18.3767C31.2647 25.3758 25.5606 31.0646 18.5614 31.0646ZM25.5297 21.5679C25.1443 21.3829 23.2635 20.4579 22.9243 20.3192C22.5697 20.1958 22.3231 20.1342 22.061 20.5042C21.7989 20.8896 21.0743 21.7529 20.8585 21.9996C20.6427 22.2617 20.4114 22.2925 20.026 22.0921C19.6406 21.9071 18.4072 21.4908 16.9581 20.1958C15.8172 19.1783 15.0618 17.9296 14.8306 17.5442C14.6147 17.1587 14.7997 16.9583 15.0002 16.7579C15.1697 16.5883 15.3856 16.3108 15.5706 16.095C15.7556 15.8792 15.8327 15.7096 15.956 15.4629C16.0793 15.2008 16.0177 14.985 15.9252 14.8C15.8327 14.615 15.0618 12.7342 14.7535 11.9633C14.4452 11.2233 14.1214 11.3158 13.8902 11.3004H13.1502C12.8881 11.3004 12.4872 11.3929 12.1327 11.7783C11.7935 12.1637 10.8068 13.0887 10.8068 14.9696C10.8068 16.8504 12.1789 18.6696 12.3639 18.9162C12.5489 19.1783 15.0618 23.0325 18.8852 24.6821C19.7947 25.0829 20.5039 25.3142 21.0589 25.4837C21.9685 25.7767 22.801 25.7304 23.4639 25.6379C24.2039 25.53 25.7302 24.7129 26.0385 23.8187C26.3622 22.9246 26.3622 22.1692 26.2543 21.9996C26.1464 21.83 25.9152 21.7529 25.5297 21.5679Z" fill="#135E69"/>
</g>
</svg>
