<svg width="27" height="19" viewBox="0 0 27 19" fill="none" xmlns="http://www.w3.org/2000/svg">
<path d="M0 11.4501C0 10.1602 0 8.87076 0 7.58082C0.0972498 7.51919 0.0480964 7.42143 0.0523246 7.34174C0.120505 6.08101 0.207184 4.82347 0.420183 3.57603C0.590898 2.57988 1.00474 1.73886 1.81815 1.11302C2.45979 0.619457 3.20924 0.464854 3.98249 0.376131C5.78214 0.169463 7.5913 0.113678 9.39994 0.0600192C12.624 -0.0361424 15.8475 -0.0154226 19.0705 0.112616C20.571 0.172119 22.0704 0.244373 23.5588 0.473886C25.0513 0.70393 26.1274 1.68095 26.4805 3.14463C26.7194 4.13547 26.814 5.14543 26.8838 6.15752C27.0133 8.02709 27.0386 9.89826 26.9393 11.7705C26.8695 13.0838 26.7944 14.3977 26.5238 15.6892C26.1972 17.2496 25.267 18.2186 23.6983 18.5167C22.4267 18.7584 21.1333 18.8062 19.8443 18.8631C17.3337 18.9736 14.8216 19.0241 12.309 18.989C9.40205 18.9486 6.4946 18.9268 3.60353 18.556C1.99204 18.3493 0.874191 17.3787 0.502634 15.7896C0.254752 14.7297 0.179172 13.6454 0.103064 12.5621C0.0766371 12.1907 0.109935 11.8135 0 11.4501ZM10.8217 13.5636C13.1715 12.203 15.4876 10.862 17.8374 9.50192C15.4849 8.13972 13.1657 6.79718 10.8217 5.43976C10.8217 8.15407 10.8217 10.8328 10.8217 13.5636Z" fill="#343434"/>
</svg>
